<svg xmlns="http://www.w3.org/2000/svg" width="1000" height="620" viewBox="0 0 1000 620"><rect width="100%" height="100%" fill="white"/><text x="50.0" y="38.0" font-size="22" text-anchor="start" fill="#16222e" font-weight="bold">Cumulative objective trajectory</text><text x="50.0" y="62.0" font-size="13" text-anchor="start" fill="#536273" font-weight="normal">Probability-weighted mean by policy; P0 and P8 emphasized</text><rect x="90.0" y="95.0" width="860.0" height="400.0" fill="#fbfcfd" stroke="#d8dee6" stroke-width="1" opacity="1"/><line x1="90.0" y1="495.0" x2="950.0" y2="495.0" stroke="#e7ebef" stroke-width="1"/><text x="80.0" y="499.0" font-size="11" text-anchor="end" fill="#25313c" font-weight="normal">0k</text><line x1="90.0" y1="411.1" x2="950.0" y2="411.1" stroke="#e7ebef" stroke-width="1"/><text x="80.0" y="415.1" font-size="11" text-anchor="end" fill="#25313c" font-weight="normal">40k</text><line x1="90.0" y1="327.2" x2="950.0" y2="327.2" stroke="#e7ebef" stroke-width="1"/><text x="80.0" y="331.2" font-size="11" text-anchor="end" fill="#25313c" font-weight="normal">80k</text><line x1="90.0" y1="243.3" x2="950.0" y2="243.3" stroke="#e7ebef" stroke-width="1"/><text x="80.0" y="247.3" font-size="11" text-anchor="end" fill="#25313c" font-weight="normal">120k</text><line x1="90.0" y1="159.4" x2="950.0" y2="159.4" stroke="#e7ebef" stroke-width="1"/><text x="80.0" y="163.4" font-size="11" text-anchor="end" fill="#25313c" font-weight="normal">160k</text><line x1="90.0" y1="75.5" x2="950.0" y2="75.5" stroke="#e7ebef" stroke-width="1"/><text x="80.0" y="79.5" font-size="11" text-anchor="end" fill="#25313c" font-weight="normal">200k</text><line x1="90.0" y1="95.0" x2="90.0" y2="495.0" stroke="#eef1f4" stroke-width="1"/><text x="90.0" y="517.0" font-size="11" text-anchor="middle" fill="#25313c" font-weight="normal">1</text><line x1="250.3" y1="95.0" x2="250.3" y2="495.0" stroke="#eef1f4" stroke-width="1"/><text x="250.3" y="517.0" font-size="11" text-anchor="middle" fill="#25313c" font-weight="normal">12</text><line x1="425.3" y1="95.0" x2="425.3" y2="495.0" stroke="#eef1f4" stroke-width="1"/><text x="425.3" y="517.0" font-size="11" text-anchor="middle" fill="#25313c" font-weight="normal">24</text><line x1="600.2" y1="95.0" x2="600.2" y2="495.0" stroke="#eef1f4" stroke-width="1"/><text x="600.2" y="517.0" font-size="11" text-anchor="middle" fill="#25313c" font-weight="normal">36</text><line x1="775.1" y1="95.0" x2="775.1" y2="495.0" stroke="#eef1f4" stroke-width="1"/><text x="775.1" y="517.0" font-size="11" text-anchor="middle" fill="#25313c" font-weight="normal">48</text><line x1="950.0" y1="95.0" x2="950.0" y2="495.0" stroke="#eef1f4" stroke-width="1"/><text x="950.0" y="517.0" font-size="11" text-anchor="middle" fill="#25313c" font-weight="normal">60</text><polyline points="90.0,493.3 104.6,491.6 119.2,489.8 133.7,487.7 148.3,485.4 162.9,482.8 177.5,479.6 192.0,475.7 206.6,471.1 221.2,465.8 235.8,460.0 250.3,453.8 264.9,447.3 279.5,440.5 294.1,433.7 308.6,426.6 323.2,419.5 337.8,412.5 352.4,405.8 366.9,399.1 381.5,392.2 396.1,385.5 410.7,378.9 425.3,372.2 439.8,365.7 454.4,359.4 469.0,353.1 483.6,346.7 498.1,340.3 512.7,333.8 527.3,327.2 541.9,320.7 556.4,313.8 571.0,306.9 585.6,299.6 600.2,291.9 614.7,283.8 629.3,275.5 643.9,267.3 658.5,259.2 673.1,251.3 687.6,243.4 702.2,235.5 716.8,227.6 731.4,219.8 745.9,212.0 760.5,204.0 775.1,196.1 789.7,188.3 804.2,180.7 818.8,173.3 833.4,165.9 848.0,158.9 862.5,152.2 877.1,145.8 891.7,139.9 906.3,134.3 920.8,129.2 935.4,124.4 950.0,119.0" fill="none" stroke="#4E79A7" stroke-width="3" opacity="1"/><polyline points="90.0,493.3 104.6,491.6 119.2,489.8 133.7,487.7 148.3,485.4 162.9,482.8 177.5,479.6 192.0,475.7 206.6,471.1 221.2,465.9 235.8,460.1 250.3,454.0 264.9,447.5 279.5,440.8 294.1,434.0 308.6,426.9 323.2,419.8 337.8,412.8 352.4,406.1 366.9,399.4 381.5,392.4 396.1,385.7 410.7,379.2 425.3,372.6 439.8,366.2 454.4,360.1 469.0,353.9 483.6,347.7 498.1,341.5 512.7,335.2 527.3,328.7 541.9,322.2 556.4,315.4 571.0,308.6 585.6,301.3 600.2,293.6 614.7,285.6 629.3,277.3 643.9,269.1 658.5,261.1 673.1,253.3 687.6,245.5 702.2,237.7 716.8,229.8 731.4,222.0 745.9,214.1 760.5,206.1 775.1,198.0 789.7,190.0 804.2,182.1 818.8,174.2 833.4,166.4 848.0,158.9 862.5,151.7 877.1,144.9 891.7,138.7 906.3,132.8 920.8,127.5 935.4,122.5 950.0,117.0" fill="none" stroke="#F28E2B" stroke-width="1.7" opacity="0.75"/><polyline points="90.0,493.3 104.6,491.6 119.2,489.8 133.7,487.7 148.3,485.4 162.9,482.7 177.5,479.6 192.0,475.7 206.6,471.2 221.2,466.0 235.8,460.2 250.3,454.1 264.9,447.6 279.5,440.9 294.1,434.1 308.6,427.1 323.2,420.1 337.8,413.0 352.4,406.3 366.9,399.6 381.5,392.7 396.1,385.9 410.7,379.2 425.3,372.5 439.8,365.9 454.4,359.6 469.0,353.2 483.6,346.7 498.1,340.2 512.7,333.6 527.3,326.9 541.9,320.2 556.4,313.3 571.0,306.3 585.6,298.9 600.2,291.2 614.7,283.1 629.3,274.8 643.9,266.6 658.5,258.6 673.1,250.8 687.6,243.0 702.2,235.2 716.8,227.4 731.4,219.7 745.9,212.0 760.5,204.2 775.1,196.4 789.7,188.7 804.2,181.0 818.8,173.3 833.4,165.7 848.0,158.4 862.5,151.5 877.1,145.0 891.7,139.0 906.3,133.2 920.8,127.9 935.4,122.9 950.0,117.3" fill="none" stroke="#76B7B2" stroke-width="1.7" opacity="0.75"/><polyline points="90.0,493.3 104.6,491.7 119.2,490.0 133.7,488.2 148.3,486.3 162.9,484.0 177.5,481.4 192.0,478.4 206.6,474.8 221.2,470.8 235.8,466.2 250.3,461.3 264.9,456.3 279.5,450.9 294.1,445.3 308.6,439.4 323.2,433.4 337.8,427.2 352.4,421.4 366.9,415.4 381.5,409.1 396.1,402.8 410.7,396.8 425.3,390.6 439.8,384.4 454.4,378.4 469.0,372.4 483.6,366.2 498.1,359.9 512.7,353.6 527.3,347.2 541.9,340.7 556.4,334.0 571.0,327.2 585.6,319.9 600.2,312.2 614.7,304.2 629.3,296.0 643.9,287.8 658.5,279.9 673.1,272.0 687.6,264.1 702.2,256.4 716.8,248.7 731.4,241.2 745.9,233.5 760.5,225.7 775.1,217.9 789.7,210.1 804.2,202.5 818.8,194.9 833.4,187.4 848.0,180.3 862.5,173.5 877.1,167.1 891.7,161.1 906.3,155.4 920.8,150.2 935.4,145.4 950.0,139.9" fill="none" stroke="#FF9DA7" stroke-width="1.7" opacity="0.75"/><polyline points="90.0,493.3 104.6,491.6 119.2,489.8 133.7,487.7 148.3,485.4 162.9,482.7 177.5,479.5 192.0,475.6 206.6,471.0 221.2,465.7 235.8,460.0 250.3,453.8 264.9,447.4 279.5,440.7 294.1,433.9 308.6,426.9 323.2,419.8 337.8,412.8 352.4,406.1 366.9,399.3 381.5,392.4 396.1,385.6 410.7,379.0 425.3,372.3 439.8,365.7 454.4,359.5 469.0,353.1 483.6,346.7 498.1,340.2 512.7,333.7 527.3,327.0 541.9,320.3 556.4,313.4 571.0,306.4 585.6,298.9 600.2,291.1 614.7,282.9 629.3,274.5 643.9,266.2 658.5,258.1 673.1,250.2 687.6,242.2 702.2,234.3 716.8,226.5 731.4,218.7 745.9,210.8 760.5,202.9 775.1,194.9 789.7,186.9 804.2,179.2 818.8,171.4 833.4,163.8 848.0,156.4 862.5,149.3 877.1,142.6 891.7,136.3 906.3,130.3 920.8,124.8 935.4,119.7 950.0,114.0" fill="none" stroke="#0B8F55" stroke-width="3" opacity="1"/><polyline points="90.0,493.3 104.6,491.7 119.2,490.1 133.7,488.4 148.3,486.5 162.9,484.4 177.5,481.9 192.0,479.0 206.6,475.7 221.2,471.9 235.8,467.7 250.3,463.2 264.9,458.5 279.5,453.6 294.1,448.3 308.6,442.6 323.2,436.7 337.8,430.6 352.4,425.0 366.9,419.2 381.5,413.1 396.1,407.0 410.7,401.0 425.3,395.1 439.8,389.4 454.4,384.1 469.0,378.9 483.6,373.8 498.1,368.6 512.7,363.5 527.3,358.4 541.9,353.6 556.4,348.7 571.0,343.7 585.6,338.2 600.2,332.1 614.7,325.4 629.3,318.1 643.9,310.7 658.5,303.7 673.1,296.9 687.6,290.2 702.2,283.8 716.8,277.8 731.4,272.3 745.9,267.3 760.5,262.8 775.1,258.8 789.7,255.2 804.2,251.9 818.8,248.8 833.4,245.9 848.0,243.1 862.5,240.5 877.1,238.0 891.7,235.6 906.3,233.4 920.8,231.3 935.4,229.4 950.0,227.1" fill="none" stroke="#9C755F" stroke-width="1.7" opacity="0.75"/><text x="520.0" y="535.0" font-size="12" text-anchor="middle" fill="#25313c" font-weight="normal">X: Simulation month (month)</text><text x="22.0" y="295.0" font-size="12" text-anchor="middle" fill="#25313c" font-weight="normal" transform="rotate(-90 22 295.0)">Y: Cumulative objective (KRW million)</text><line x1="110.0" y1="568.0" x2="138.0" y2="568.0" stroke="#4E79A7" stroke-width="3"/><text x="144.0" y="572.0" font-size="12" text-anchor="start" fill="#4E79A7" font-weight="bold">P0</text><line x1="245.0" y1="568.0" x2="273.0" y2="568.0" stroke="#F28E2B" stroke-width="3"/><text x="279.0" y="572.0" font-size="12" text-anchor="start" fill="#F28E2B" font-weight="bold">P1</text><line x1="380.0" y1="568.0" x2="408.0" y2="568.0" stroke="#76B7B2" stroke-width="3"/><text x="414.0" y="572.0" font-size="12" text-anchor="start" fill="#76B7B2" font-weight="bold">P3</text><line x1="515.0" y1="568.0" x2="543.0" y2="568.0" stroke="#FF9DA7" stroke-width="3"/><text x="549.0" y="572.0" font-size="12" text-anchor="start" fill="#FF9DA7" font-weight="bold">P7</text><line x1="650.0" y1="568.0" x2="678.0" y2="568.0" stroke="#0B8F55" stroke-width="3"/><text x="684.0" y="572.0" font-size="12" text-anchor="start" fill="#0B8F55" font-weight="bold">P8</text><line x1="785.0" y1="568.0" x2="813.0" y2="568.0" stroke="#9C755F" stroke-width="3"/><text x="819.0" y="572.0" font-size="12" text-anchor="start" fill="#9C755F" font-weight="bold">P9</text><text x="50.0" y="602.0" font-size="11" text-anchor="start" fill="#697887" font-weight="normal">Figure 1. Values are discounted and penalty-adjusted under the reference configuration.</text></svg>