<svg xmlns="http://www.w3.org/2000/svg" width="1000" height="620" viewBox="0 0 1000 620"><rect width="100%" height="100%" fill="white"/><text x="50.0" y="38.0" font-size="22" text-anchor="start" fill="#16222e" font-weight="bold">Observed outcome distributions and normal overlays</text><text x="50.0" y="62.0" font-size="13" text-anchor="start" fill="#536273" font-weight="normal">14,000-run experiment subset: 1,400 actual outcomes per displayed policy</text><rect x="90.0" y="95.0" width="860.0" height="400.0" fill="#fbfcfd" stroke="#d8dee6" stroke-width="1" opacity="1"/><line x1="90.0" y1="495.0" x2="950.0" y2="495.0" stroke="#e7ebef" stroke-width="1"/><text x="80.0" y="499.0" font-size="11" text-anchor="end" fill="#25313c" font-weight="normal">0.000</text><line x1="90.0" y1="404.1" x2="950.0" y2="404.1" stroke="#e7ebef" stroke-width="1"/><text x="80.0" y="408.1" font-size="11" text-anchor="end" fill="#25313c" font-weight="normal">0.006</text><line x1="90.0" y1="313.2" x2="950.0" y2="313.2" stroke="#e7ebef" stroke-width="1"/><text x="80.0" y="317.2" font-size="11" text-anchor="end" fill="#25313c" font-weight="normal">0.012</text><line x1="90.0" y1="222.3" x2="950.0" y2="222.3" stroke="#e7ebef" stroke-width="1"/><text x="80.0" y="226.3" font-size="11" text-anchor="end" fill="#25313c" font-weight="normal">0.018</text><line x1="90.0" y1="131.4" x2="950.0" y2="131.4" stroke="#e7ebef" stroke-width="1"/><text x="80.0" y="135.4" font-size="11" text-anchor="end" fill="#25313c" font-weight="normal">0.024</text><line x1="170.0" y1="95.0" x2="170.0" y2="495.0" stroke="#eef1f4" stroke-width="1"/><text x="170.0" y="517.0" font-size="11" text-anchor="middle" fill="#25313c" font-weight="normal">120k</text><line x1="303.3" y1="95.0" x2="303.3" y2="495.0" stroke="#eef1f4" stroke-width="1"/><text x="303.3" y="517.0" font-size="11" text-anchor="middle" fill="#25313c" font-weight="normal">140k</text><line x1="436.5" y1="95.0" x2="436.5" y2="495.0" stroke="#eef1f4" stroke-width="1"/><text x="436.5" y="517.0" font-size="11" text-anchor="middle" fill="#25313c" font-weight="normal">160k</text><line x1="569.8" y1="95.0" x2="569.8" y2="495.0" stroke="#eef1f4" stroke-width="1"/><text x="569.8" y="517.0" font-size="11" text-anchor="middle" fill="#25313c" font-weight="normal">180k</text><line x1="703.1" y1="95.0" x2="703.1" y2="495.0" stroke="#eef1f4" stroke-width="1"/><text x="703.1" y="517.0" font-size="11" text-anchor="middle" fill="#25313c" font-weight="normal">200k</text><line x1="836.3" y1="95.0" x2="836.3" y2="495.0" stroke="#eef1f4" stroke-width="1"/><text x="836.3" y="517.0" font-size="11" text-anchor="middle" fill="#25313c" font-weight="normal">220k</text><rect x="90.0" y="478.6" width="26.9" height="16.4" fill="#4E79A7" stroke="none" stroke-width="1" opacity="0.22"/><rect x="116.9" y="473.1" width="26.9" height="21.9" fill="#4E79A7" stroke="none" stroke-width="1" opacity="0.22"/><rect x="143.8" y="396.6" width="26.9" height="98.4" fill="#4E79A7" stroke="none" stroke-width="1" opacity="0.22"/><rect x="170.6" y="372.0" width="26.9" height="123.0" fill="#4E79A7" stroke="none" stroke-width="1" opacity="0.22"/><rect x="197.5" y="314.5" width="26.9" height="180.5" fill="#4E79A7" stroke="none" stroke-width="1" opacity="0.22"/><rect x="224.4" y="279.0" width="26.9" height="216.0" fill="#4E79A7" stroke="none" stroke-width="1" opacity="0.22"/><rect x="251.2" y="207.9" width="26.9" height="287.1" fill="#4E79A7" stroke="none" stroke-width="1" opacity="0.22"/><rect x="278.1" y="158.7" width="26.9" height="336.3" fill="#4E79A7" stroke="none" stroke-width="1" opacity="0.22"/><rect x="305.0" y="169.6" width="26.9" height="325.4" fill="#4E79A7" stroke="none" stroke-width="1" opacity="0.22"/><rect x="331.9" y="161.4" width="26.9" height="333.6" fill="#4E79A7" stroke="none" stroke-width="1" opacity="0.22"/><rect x="358.8" y="131.4" width="26.9" height="363.6" fill="#4E79A7" stroke="none" stroke-width="1" opacity="0.22"/><rect x="385.6" y="232.5" width="26.9" height="262.5" fill="#4E79A7" stroke="none" stroke-width="1" opacity="0.22"/><rect x="412.5" y="270.8" width="26.9" height="224.2" fill="#4E79A7" stroke="none" stroke-width="1" opacity="0.22"/><rect x="439.4" y="287.2" width="26.9" height="207.8" fill="#4E79A7" stroke="none" stroke-width="1" opacity="0.22"/><rect x="466.2" y="374.7" width="26.9" height="120.3" fill="#4E79A7" stroke="none" stroke-width="1" opacity="0.22"/><rect x="493.1" y="429.4" width="26.9" height="65.6" fill="#4E79A7" stroke="none" stroke-width="1" opacity="0.22"/><rect x="520.0" y="407.5" width="26.9" height="87.5" fill="#4E79A7" stroke="none" stroke-width="1" opacity="0.22"/><rect x="546.9" y="434.8" width="26.9" height="60.2" fill="#4E79A7" stroke="none" stroke-width="1" opacity="0.22"/><rect x="573.8" y="423.9" width="26.9" height="71.1" fill="#4E79A7" stroke="none" stroke-width="1" opacity="0.22"/><rect x="600.6" y="421.2" width="26.9" height="73.8" fill="#4E79A7" stroke="none" stroke-width="1" opacity="0.22"/><rect x="627.5" y="432.1" width="26.9" height="62.9" fill="#4E79A7" stroke="none" stroke-width="1" opacity="0.22"/><rect x="654.4" y="423.9" width="26.9" height="71.1" fill="#4E79A7" stroke="none" stroke-width="1" opacity="0.22"/><rect x="681.2" y="443.1" width="26.9" height="51.9" fill="#4E79A7" stroke="none" stroke-width="1" opacity="0.22"/><rect x="708.1" y="440.3" width="26.9" height="54.7" fill="#4E79A7" stroke="none" stroke-width="1" opacity="0.22"/><rect x="735.0" y="456.7" width="26.9" height="38.3" fill="#4E79A7" stroke="none" stroke-width="1" opacity="0.22"/><rect x="761.9" y="467.7" width="26.9" height="27.3" fill="#4E79A7" stroke="none" stroke-width="1" opacity="0.22"/><rect x="788.8" y="475.9" width="26.9" height="19.1" fill="#4E79A7" stroke="none" stroke-width="1" opacity="0.22"/><rect x="815.6" y="484.1" width="26.9" height="10.9" fill="#4E79A7" stroke="none" stroke-width="1" opacity="0.22"/><rect x="842.5" y="484.1" width="26.9" height="10.9" fill="#4E79A7" stroke="none" stroke-width="1" opacity="0.22"/><rect x="869.4" y="492.3" width="26.9" height="2.7" fill="#4E79A7" stroke="none" stroke-width="1" opacity="0.22"/><rect x="896.2" y="492.3" width="26.9" height="2.7" fill="#4E79A7" stroke="none" stroke-width="1" opacity="0.22"/><rect x="923.1" y="495.0" width="26.9" height="0.0" fill="#4E79A7" stroke="none" stroke-width="1" opacity="0.22"/><polyline points="90.0,454.7 93.6,452.7 97.2,450.7 100.7,448.7 104.3,446.5 107.9,444.3 111.5,442.1 115.1,439.7 118.7,437.3 122.2,434.8 125.8,432.3 129.4,429.6 133.0,427.0 136.6,424.2 140.2,421.4 143.7,418.5 147.3,415.5 150.9,412.4 154.5,409.3 158.1,406.2 161.7,402.9 165.2,399.6 168.8,396.3 172.4,392.8 176.0,389.4 179.6,385.8 183.2,382.2 186.8,378.6 190.3,374.9 193.9,371.2 197.5,367.4 201.1,363.6 204.7,359.7 208.2,355.9 211.8,352.0 215.4,348.0 219.0,344.1 222.6,340.1 226.2,336.1 229.8,332.1 233.3,328.1 236.9,324.1 240.5,320.1 244.1,316.1 247.7,312.1 251.3,308.2 254.8,304.3 258.4,300.4 262.0,296.5 265.6,292.7 269.2,288.9 272.8,285.2 276.3,281.5 279.9,277.9 283.5,274.3 287.1,270.9 290.7,267.5 294.3,264.1 297.8,260.9 301.4,257.8 305.0,254.7 308.6,251.8 312.2,249.0 315.8,246.2 319.3,243.6 322.9,241.1 326.5,238.8 330.1,236.5 333.7,234.4 337.2,232.4 340.8,230.6 344.4,228.9 348.0,227.3 351.6,225.9 355.2,224.7 358.8,223.6 362.3,222.6 365.9,221.8 369.5,221.1 373.1,220.6 376.7,220.3 380.3,220.1 383.8,220.1 387.4,220.3 391.0,220.6 394.6,221.0 398.2,221.6 401.8,222.4 405.3,223.3 408.9,224.4 412.5,225.6 416.1,227.0 419.7,228.5 423.2,230.2 426.8,232.0 430.4,233.9 434.0,236.0 437.6,238.2 441.2,240.5 444.8,243.0 448.3,245.6 451.9,248.3 455.5,251.1 459.1,254.0 462.7,257.0 466.2,260.2 469.8,263.4 473.4,266.7 477.0,270.0 480.6,273.5 484.2,277.0 487.8,280.6 491.3,284.3 494.9,288.0 498.5,291.8 502.1,295.6 505.7,299.4 509.2,303.3 512.8,307.2 516.4,311.2 520.0,315.2 523.6,319.1 527.2,323.1 530.8,327.1 534.3,331.1 537.9,335.1 541.5,339.1 545.1,343.1 548.7,347.1 552.2,351.0 555.8,354.9 559.4,358.8 563.0,362.7 566.6,366.5 570.2,370.3 573.8,374.0 577.3,377.7 580.9,381.4 584.5,385.0 588.1,388.5 591.7,392.0 595.2,395.4 598.8,398.8 602.4,402.1 606.0,405.4 609.6,408.6 613.2,411.7 616.7,414.8 620.3,417.7 623.9,420.7 627.5,423.5 631.1,426.3 634.7,429.0 638.2,431.6 641.8,434.2 645.4,436.7 649.0,439.1 652.6,441.5 656.2,443.8 659.8,446.0 663.3,448.2 666.9,450.2 670.5,452.3 674.1,454.2 677.7,456.1 681.2,457.9 684.8,459.6 688.4,461.3 692.0,463.0 695.6,464.5 699.2,466.0 702.7,467.5 706.3,468.9 709.9,470.2 713.5,471.5 717.1,472.7 720.7,473.9 724.2,475.0 727.8,476.1 731.4,477.1 735.0,478.1 738.6,479.0 742.2,479.9 745.8,480.8 749.3,481.6 752.9,482.3 756.5,483.1 760.1,483.8 763.7,484.4 767.2,485.1 770.8,485.7 774.4,486.2 778.0,486.8 781.6,487.3 785.2,487.8 788.7,488.2 792.3,488.7 795.9,489.1 799.5,489.4 803.1,489.8 806.7,490.1 810.2,490.5 813.8,490.8 817.4,491.1 821.0,491.3 824.6,491.6 828.2,491.8 831.8,492.0 835.3,492.2 838.9,492.4 842.5,492.6 846.1,492.8 849.7,492.9 853.3,493.1 856.8,493.2 860.4,493.4 864.0,493.5 867.6,493.6 871.2,493.7 874.7,493.8 878.3,493.9 881.9,494.0 885.5,494.1 889.1,494.1 892.7,494.2 896.2,494.3 899.8,494.3 903.4,494.4 907.0,494.4 910.6,494.5 914.2,494.5 917.8,494.6 921.3,494.6 924.9,494.6 928.5,494.7 932.1,494.7 935.7,494.7 939.3,494.7 942.8,494.8 946.4,494.8 950.0,494.8" fill="none" stroke="#4E79A7" stroke-width="3" opacity="1"/><line x1="382.5" y1="117.0" x2="382.5" y2="220.1" stroke="#4E79A7" stroke-width="1" stroke-dasharray="3,3"/><text x="382.5" y="112.0" font-size="11" text-anchor="middle" fill="#4E79A7" font-weight="bold">P0 mean 151,888</text><rect x="90.0" y="481.3" width="26.9" height="13.7" fill="#0B8F55" stroke="none" stroke-width="1" opacity="0.22"/><rect x="116.9" y="456.7" width="26.9" height="38.3" fill="#0B8F55" stroke="none" stroke-width="1" opacity="0.22"/><rect x="143.8" y="391.1" width="26.9" height="103.9" fill="#0B8F55" stroke="none" stroke-width="1" opacity="0.22"/><rect x="170.6" y="363.8" width="26.9" height="131.2" fill="#0B8F55" stroke="none" stroke-width="1" opacity="0.22"/><rect x="197.5" y="336.4" width="26.9" height="158.6" fill="#0B8F55" stroke="none" stroke-width="1" opacity="0.22"/><rect x="224.4" y="287.2" width="26.9" height="207.8" fill="#0B8F55" stroke="none" stroke-width="1" opacity="0.22"/><rect x="251.2" y="279.0" width="26.9" height="216.0" fill="#0B8F55" stroke="none" stroke-width="1" opacity="0.22"/><rect x="278.1" y="221.6" width="26.9" height="273.4" fill="#0B8F55" stroke="none" stroke-width="1" opacity="0.22"/><rect x="305.0" y="169.6" width="26.9" height="325.4" fill="#0B8F55" stroke="none" stroke-width="1" opacity="0.22"/><rect x="331.9" y="153.2" width="26.9" height="341.8" fill="#0B8F55" stroke="none" stroke-width="1" opacity="0.22"/><rect x="358.8" y="172.4" width="26.9" height="322.6" fill="#0B8F55" stroke="none" stroke-width="1" opacity="0.22"/><rect x="385.6" y="218.9" width="26.9" height="276.1" fill="#0B8F55" stroke="none" stroke-width="1" opacity="0.22"/><rect x="412.5" y="235.3" width="26.9" height="259.7" fill="#0B8F55" stroke="none" stroke-width="1" opacity="0.22"/><rect x="439.4" y="300.9" width="26.9" height="194.1" fill="#0B8F55" stroke="none" stroke-width="1" opacity="0.22"/><rect x="466.2" y="336.4" width="26.9" height="158.6" fill="#0B8F55" stroke="none" stroke-width="1" opacity="0.22"/><rect x="493.1" y="391.1" width="26.9" height="103.9" fill="#0B8F55" stroke="none" stroke-width="1" opacity="0.22"/><rect x="520.0" y="402.0" width="26.9" height="93.0" fill="#0B8F55" stroke="none" stroke-width="1" opacity="0.22"/><rect x="546.9" y="434.8" width="26.9" height="60.2" fill="#0B8F55" stroke="none" stroke-width="1" opacity="0.22"/><rect x="573.8" y="440.3" width="26.9" height="54.7" fill="#0B8F55" stroke="none" stroke-width="1" opacity="0.22"/><rect x="600.6" y="421.2" width="26.9" height="73.8" fill="#0B8F55" stroke="none" stroke-width="1" opacity="0.22"/><rect x="627.5" y="437.6" width="26.9" height="57.4" fill="#0B8F55" stroke="none" stroke-width="1" opacity="0.22"/><rect x="654.4" y="421.2" width="26.9" height="73.8" fill="#0B8F55" stroke="none" stroke-width="1" opacity="0.22"/><rect x="681.2" y="432.1" width="26.9" height="62.9" fill="#0B8F55" stroke="none" stroke-width="1" opacity="0.22"/><rect x="708.1" y="443.1" width="26.9" height="51.9" fill="#0B8F55" stroke="none" stroke-width="1" opacity="0.22"/><rect x="735.0" y="429.4" width="26.9" height="65.6" fill="#0B8F55" stroke="none" stroke-width="1" opacity="0.22"/><rect x="761.9" y="462.2" width="26.9" height="32.8" fill="#0B8F55" stroke="none" stroke-width="1" opacity="0.22"/><rect x="788.8" y="459.5" width="26.9" height="35.5" fill="#0B8F55" stroke="none" stroke-width="1" opacity="0.22"/><rect x="815.6" y="484.1" width="26.9" height="10.9" fill="#0B8F55" stroke="none" stroke-width="1" opacity="0.22"/><rect x="842.5" y="484.1" width="26.9" height="10.9" fill="#0B8F55" stroke="none" stroke-width="1" opacity="0.22"/><rect x="869.4" y="489.5" width="26.9" height="5.5" fill="#0B8F55" stroke="none" stroke-width="1" opacity="0.22"/><rect x="896.2" y="489.5" width="26.9" height="5.5" fill="#0B8F55" stroke="none" stroke-width="1" opacity="0.22"/><rect x="923.1" y="486.8" width="26.9" height="8.2" fill="#0B8F55" stroke="none" stroke-width="1" opacity="0.22"/><polyline points="90.0,454.5 93.6,452.7 97.2,450.9 100.7,449.0 104.3,447.0 107.9,445.0 111.5,443.0 115.1,440.8 118.7,438.6 122.2,436.4 125.8,434.1 129.4,431.7 133.0,429.3 136.6,426.8 140.2,424.3 143.7,421.7 147.3,419.0 150.9,416.3 154.5,413.5 158.1,410.7 161.7,407.8 165.2,404.9 168.8,401.9 172.4,398.9 176.0,395.8 179.6,392.7 183.2,389.5 186.8,386.3 190.3,383.1 193.9,379.8 197.5,376.5 201.1,373.1 204.7,369.7 208.2,366.3 211.8,362.9 215.4,359.4 219.0,355.9 222.6,352.4 226.2,348.9 229.8,345.4 233.3,341.8 236.9,338.3 240.5,334.8 244.1,331.2 247.7,327.7 251.3,324.2 254.8,320.7 258.4,317.2 262.0,313.7 265.6,310.3 269.2,306.9 272.8,303.5 276.3,300.2 279.9,296.9 283.5,293.7 287.1,290.5 290.7,287.4 294.3,284.3 297.8,281.3 301.4,278.3 305.0,275.5 308.6,272.7 312.2,270.0 315.8,267.3 319.3,264.8 322.9,262.3 326.5,260.0 330.1,257.7 333.7,255.5 337.2,253.5 340.8,251.5 344.4,249.7 348.0,247.9 351.6,246.3 355.2,244.8 358.8,243.4 362.3,242.2 365.9,241.0 369.5,240.0 373.1,239.1 376.7,238.4 380.3,237.7 383.8,237.2 387.4,236.9 391.0,236.6 394.6,236.5 398.2,236.5 401.8,236.7 405.3,237.0 408.9,237.4 412.5,237.9 416.1,238.6 419.7,239.4 423.2,240.4 426.8,241.4 430.4,242.6 434.0,243.9 437.6,245.3 441.2,246.9 444.8,248.5 448.3,250.3 451.9,252.2 455.5,254.2 459.1,256.3 462.7,258.5 466.2,260.8 469.8,263.2 473.4,265.7 477.0,268.2 480.6,270.9 484.2,273.6 487.8,276.5 491.3,279.4 494.9,282.3 498.5,285.3 502.1,288.4 505.7,291.6 509.2,294.8 512.8,298.0 516.4,301.3 520.0,304.7 523.6,308.1 527.2,311.5 530.8,314.9 534.3,318.4 537.9,321.9 541.5,325.4 545.1,328.9 548.7,332.4 552.2,336.0 555.8,339.5 559.4,343.0 563.0,346.6 566.6,350.1 570.2,353.6 573.8,357.1 577.3,360.6 580.9,364.1 584.5,367.5 588.1,370.9 591.7,374.3 595.2,377.6 598.8,380.9 602.4,384.2 606.0,387.4 609.6,390.6 613.2,393.8 616.7,396.9 620.3,399.9 623.9,403.0 627.5,405.9 631.1,408.8 634.7,411.7 638.2,414.5 641.8,417.2 645.4,419.9 649.0,422.6 652.6,425.1 656.2,427.7 659.8,430.1 663.3,432.5 666.9,434.9 670.5,437.2 674.1,439.4 677.7,441.6 681.2,443.7 684.8,445.7 688.4,447.7 692.0,449.7 695.6,451.5 699.2,453.4 702.7,455.1 706.3,456.8 709.9,458.5 713.5,460.1 717.1,461.7 720.7,463.2 724.2,464.6 727.8,466.0 731.4,467.3 735.0,468.6 738.6,469.9 742.2,471.1 745.8,472.2 749.3,473.3 752.9,474.4 756.5,475.4 760.1,476.4 763.7,477.4 767.2,478.3 770.8,479.1 774.4,480.0 778.0,480.8 781.6,481.5 785.2,482.2 788.7,482.9 792.3,483.6 795.9,484.2 799.5,484.8 803.1,485.4 806.7,485.9 810.2,486.4 813.8,486.9 817.4,487.4 821.0,487.8 824.6,488.3 828.2,488.7 831.8,489.0 835.3,489.4 838.9,489.7 842.5,490.1 846.1,490.4 849.7,490.7 853.3,490.9 856.8,491.2 860.4,491.4 864.0,491.7 867.6,491.9 871.2,492.1 874.7,492.3 878.3,492.5 881.9,492.6 885.5,492.8 889.1,492.9 892.7,493.1 896.2,493.2 899.8,493.3 903.4,493.4 907.0,493.6 910.6,493.7 914.2,493.7 917.8,493.8 921.3,493.9 924.9,494.0 928.5,494.1 932.1,494.1 935.7,494.2 939.3,494.3 942.8,494.3 946.4,494.4 950.0,494.4" fill="none" stroke="#0B8F55" stroke-width="3" opacity="1"/><line x1="395.8" y1="139.0" x2="395.8" y2="236.5" stroke="#0B8F55" stroke-width="1" stroke-dasharray="3,3"/><text x="395.8" y="134.0" font-size="11" text-anchor="middle" fill="#0B8F55" font-weight="bold">P8 mean 153,882</text><text x="520.0" y="535.0" font-size="12" text-anchor="middle" fill="#25313c" font-weight="normal">X: Five-year objective (KRW million)</text><text x="22.0" y="295.0" font-size="12" text-anchor="middle" fill="#25313c" font-weight="normal" transform="rotate(-90 22 295.0)">Y: Probability density (per KRW million)</text><text x="50.0" y="602.0" font-size="11" text-anchor="start" fill="#697887" font-weight="normal">Figure 2. Transparent bars are empirical densities; curves are descriptive normal fits, not normality claims.</text></svg>