<svg xmlns="http://www.w3.org/2000/svg" width="1000" height="620" viewBox="0 0 1000 620"><rect width="100%" height="100%" fill="white"/><text x="50.0" y="38.0" font-size="22" text-anchor="start" fill="#16222e" font-weight="bold">Risk-return policy map</text><text x="50.0" y="62.0" font-size="13" text-anchor="start" fill="#536273" font-weight="normal">Bubble size represents mean objective; upper-left is the desirable direction</text><rect x="90.0" y="90.0" width="860.0" height="430.0" fill="#fbfcfd" stroke="#d8dee6" stroke-width="1" opacity="1"/><line x1="90.0" y1="465.9" x2="950.0" y2="465.9" stroke="#e7ebef" stroke-width="1"/><text x="80.0" y="469.9" font-size="11" text-anchor="end" fill="#25313c" font-weight="normal">80k</text><line x1="90.0" y1="386.6" x2="950.0" y2="386.6" stroke="#e7ebef" stroke-width="1"/><text x="80.0" y="390.6" font-size="11" text-anchor="end" fill="#25313c" font-weight="normal">90k</text><line x1="90.0" y1="307.3" x2="950.0" y2="307.3" stroke="#e7ebef" stroke-width="1"/><text x="80.0" y="311.3" font-size="11" text-anchor="end" fill="#25313c" font-weight="normal">100k</text><line x1="90.0" y1="228.1" x2="950.0" y2="228.1" stroke="#e7ebef" stroke-width="1"/><text x="80.0" y="232.1" font-size="11" text-anchor="end" fill="#25313c" font-weight="normal">110k</text><line x1="90.0" y1="148.8" x2="950.0" y2="148.8" stroke="#e7ebef" stroke-width="1"/><text x="80.0" y="152.8" font-size="11" text-anchor="end" fill="#25313c" font-weight="normal">120k</text><line x1="116.6" y1="90.0" x2="116.6" y2="520.0" stroke="#eef1f4" stroke-width="1"/><text x="116.6" y="542.0" font-size="11" text-anchor="middle" fill="#25313c" font-weight="normal">16k</text><line x1="288.5" y1="90.0" x2="288.5" y2="520.0" stroke="#eef1f4" stroke-width="1"/><text x="288.5" y="542.0" font-size="11" text-anchor="middle" fill="#25313c" font-weight="normal">18k</text><line x1="460.4" y1="90.0" x2="460.4" y2="520.0" stroke="#eef1f4" stroke-width="1"/><text x="460.4" y="542.0" font-size="11" text-anchor="middle" fill="#25313c" font-weight="normal">20k</text><line x1="632.3" y1="90.0" x2="632.3" y2="520.0" stroke="#eef1f4" stroke-width="1"/><text x="632.3" y="542.0" font-size="11" text-anchor="middle" fill="#25313c" font-weight="normal">22k</text><line x1="804.2" y1="90.0" x2="804.2" y2="520.0" stroke="#eef1f4" stroke-width="1"/><text x="804.2" y="542.0" font-size="11" text-anchor="middle" fill="#25313c" font-weight="normal">24k</text><circle cx="667.1" cy="138.1" r="13.8" fill="#4E79A7" stroke="white" stroke-width="1" opacity="0.85"/><text x="679.1" y="128.1" font-size="12" text-anchor="start" fill="#4E79A7" font-weight="bold">P0</text><circle cx="796.7" cy="143.6" r="13.9" fill="#F28E2B" stroke="white" stroke-width="1" opacity="0.85"/><text x="808.7" y="133.6" font-size="12" text-anchor="start" fill="#F28E2B" font-weight="bold">P1</text><circle cx="713.1" cy="145.6" r="13.8" fill="#E15759" stroke="white" stroke-width="1" opacity="0.85"/><text x="725.1" y="135.6" font-size="12" text-anchor="start" fill="#E15759" font-weight="bold">P2</text><circle cx="688.2" cy="140.6" r="13.8" fill="#76B7B2" stroke="white" stroke-width="1" opacity="0.85"/><text x="700.2" y="130.6" font-size="12" text-anchor="start" fill="#76B7B2" font-weight="bold">P3</text><circle cx="271.7" cy="344.4" r="10.5" fill="#59A14F" stroke="white" stroke-width="1" opacity="0.85"/><text x="283.7" y="334.4" font-size="12" text-anchor="start" fill="#59A14F" font-weight="bold">P4</text><circle cx="844.8" cy="163.0" r="13.8" fill="#EDC948" stroke="white" stroke-width="1" opacity="0.85"/><text x="856.8" y="153.0" font-size="12" text-anchor="start" fill="#EDC948" font-weight="bold">P5</text><circle cx="690.8" cy="161.7" r="13.7" fill="#B07AA1" stroke="white" stroke-width="1" opacity="0.85"/><text x="702.8" y="151.7" font-size="12" text-anchor="start" fill="#B07AA1" font-weight="bold">P6</text><circle cx="434.3" cy="188.3" r="12.7" fill="#FF9DA7" stroke="white" stroke-width="1" opacity="0.85"/><text x="446.3" y="178.3" font-size="12" text-anchor="start" fill="#FF9DA7" font-weight="bold">P7</text><circle cx="789.3" cy="143.3" r="14.0" fill="#0B8F55" stroke="white" stroke-width="1" opacity="0.85"/><text x="801.3" y="133.3" font-size="12" text-anchor="start" fill="#0B8F55" font-weight="bold">P8</text><circle cx="239.9" cy="469.6" r="8.9" fill="#9C755F" stroke="white" stroke-width="1" opacity="0.85"/><text x="251.9" y="459.6" font-size="12" text-anchor="start" fill="#9C755F" font-weight="bold">P9</text><text x="520.0" y="557.0" font-size="13" text-anchor="middle" fill="#25313c" font-weight="normal">Standard deviation (lower is safer)</text><text x="22.0" y="305.0" font-size="13" text-anchor="middle" fill="#25313c" font-weight="normal" transform="rotate(-90 22 305.0)">Worst 10% mean (higher is better)</text><text x="50.0" y="602.0" font-size="11" text-anchor="start" fill="#697887" font-weight="normal">Figure 4. No single point dominates every criterion; policy choice depends on the loss function.</text></svg>