<svg xmlns="http://www.w3.org/2000/svg" width="1000" height="620" viewBox="0 0 1000 620"><rect width="100%" height="100%" fill="white"/><text x="45" y="38" font-family="sans-serif" font-size="22" font-weight="bold" fill="#16222e">Largest project start-rate differences: P8 versus P0</text><text x="45" y="62" font-family="sans-serif" font-size="13" fill="#536273">Positive bars indicate projects started more often under preemptive hiring</text><text x="125.0" y="105.0" font-family="sans-serif" font-size="11" text-anchor="start" fill="#D24A4A" font-weight="bold">I044</text><line x1="500.0" y1="89.0" x2="500.0" y2="112.0" stroke="#8b98a5" stroke-width="1"/><rect x="140.0" y="92.0" width="360.0" height="17.0" fill="#D24A4A" stroke="none"/><text x="132.0" y="105.0" font-family="sans-serif" font-size="10" text-anchor="end" fill="#D24A4A" font-weight="normal">-0.236</text><text x="125.0" y="136.0" font-family="sans-serif" font-size="11" text-anchor="start" fill="#0B8F55" font-weight="bold">I004</text><line x1="500.0" y1="120.0" x2="500.0" y2="143.0" stroke="#8b98a5" stroke-width="1"/><rect x="500.0" y="123.0" width="327.4" height="17.0" fill="#0B8F55" stroke="none"/><text x="835.4" y="136.0" font-family="sans-serif" font-size="10" text-anchor="start" fill="#0B8F55" font-weight="normal">+0.215</text><text x="125.0" y="167.0" font-family="sans-serif" font-size="11" text-anchor="start" fill="#0B8F55" font-weight="bold">I058</text><line x1="500.0" y1="151.0" x2="500.0" y2="174.0" stroke="#8b98a5" stroke-width="1"/><rect x="500.0" y="154.0" width="276.3" height="17.0" fill="#0B8F55" stroke="none"/><text x="784.3" y="167.0" font-family="sans-serif" font-size="10" text-anchor="start" fill="#0B8F55" font-weight="normal">+0.181</text><text x="125.0" y="198.0" font-family="sans-serif" font-size="11" text-anchor="start" fill="#D24A4A" font-weight="bold">I069</text><line x1="500.0" y1="182.0" x2="500.0" y2="205.0" stroke="#8b98a5" stroke-width="1"/><rect x="243.3" y="185.0" width="256.7" height="17.0" fill="#D24A4A" stroke="none"/><text x="235.3" y="198.0" font-family="sans-serif" font-size="10" text-anchor="end" fill="#D24A4A" font-weight="normal">-0.169</text><text x="125.0" y="229.0" font-family="sans-serif" font-size="11" text-anchor="start" fill="#D24A4A" font-weight="bold">I041</text><line x1="500.0" y1="213.0" x2="500.0" y2="236.0" stroke="#8b98a5" stroke-width="1"/><rect x="259.6" y="216.0" width="240.4" height="17.0" fill="#D24A4A" stroke="none"/><text x="251.6" y="229.0" font-family="sans-serif" font-size="10" text-anchor="end" fill="#D24A4A" font-weight="normal">-0.158</text><text x="125.0" y="260.0" font-family="sans-serif" font-size="11" text-anchor="start" fill="#0B8F55" font-weight="bold">E099</text><line x1="500.0" y1="244.0" x2="500.0" y2="267.0" stroke="#8b98a5" stroke-width="1"/><rect x="500.0" y="247.0" width="226.2" height="17.0" fill="#0B8F55" stroke="none"/><text x="734.2" y="260.0" font-family="sans-serif" font-size="10" text-anchor="start" fill="#0B8F55" font-weight="normal">+0.149</text><text x="125.0" y="291.0" font-family="sans-serif" font-size="11" text-anchor="start" fill="#0B8F55" font-weight="bold">E006</text><line x1="500.0" y1="275.0" x2="500.0" y2="298.0" stroke="#8b98a5" stroke-width="1"/><rect x="500.0" y="278.0" width="217.5" height="17.0" fill="#0B8F55" stroke="none"/><text x="725.5" y="291.0" font-family="sans-serif" font-size="10" text-anchor="start" fill="#0B8F55" font-weight="normal">+0.143</text><text x="125.0" y="322.0" font-family="sans-serif" font-size="11" text-anchor="start" fill="#0B8F55" font-weight="bold">E106</text><line x1="500.0" y1="306.0" x2="500.0" y2="329.0" stroke="#8b98a5" stroke-width="1"/><rect x="500.0" y="309.0" width="201.2" height="17.0" fill="#0B8F55" stroke="none"/><text x="709.2" y="322.0" font-family="sans-serif" font-size="10" text-anchor="start" fill="#0B8F55" font-weight="normal">+0.132</text><text x="125.0" y="353.0" font-family="sans-serif" font-size="11" text-anchor="start" fill="#0B8F55" font-weight="bold">I028</text><line x1="500.0" y1="337.0" x2="500.0" y2="360.0" stroke="#8b98a5" stroke-width="1"/><rect x="500.0" y="340.0" width="201.2" height="17.0" fill="#0B8F55" stroke="none"/><text x="709.2" y="353.0" font-family="sans-serif" font-size="10" text-anchor="start" fill="#0B8F55" font-weight="normal">+0.132</text><text x="125.0" y="384.0" font-family="sans-serif" font-size="11" text-anchor="start" fill="#0B8F55" font-weight="bold">I040</text><line x1="500.0" y1="368.0" x2="500.0" y2="391.0" stroke="#8b98a5" stroke-width="1"/><rect x="500.0" y="371.0" width="197.9" height="17.0" fill="#0B8F55" stroke="none"/><text x="705.9" y="384.0" font-family="sans-serif" font-size="10" text-anchor="start" fill="#0B8F55" font-weight="normal">+0.130</text><text x="125.0" y="415.0" font-family="sans-serif" font-size="11" text-anchor="start" fill="#0B8F55" font-weight="bold">I055</text><line x1="500.0" y1="399.0" x2="500.0" y2="422.0" stroke="#8b98a5" stroke-width="1"/><rect x="500.0" y="402.0" width="190.3" height="17.0" fill="#0B8F55" stroke="none"/><text x="698.3" y="415.0" font-family="sans-serif" font-size="10" text-anchor="start" fill="#0B8F55" font-weight="normal">+0.125</text><text x="125.0" y="446.0" font-family="sans-serif" font-size="11" text-anchor="start" fill="#0B8F55" font-weight="bold">E100</text><line x1="500.0" y1="430.0" x2="500.0" y2="453.0" stroke="#8b98a5" stroke-width="1"/><rect x="500.0" y="433.0" width="189.2" height="17.0" fill="#0B8F55" stroke="none"/><text x="697.2" y="446.0" font-family="sans-serif" font-size="10" text-anchor="start" fill="#0B8F55" font-weight="normal">+0.124</text><text x="125.0" y="477.0" font-family="sans-serif" font-size="11" text-anchor="start" fill="#0B8F55" font-weight="bold">E016</text><line x1="500.0" y1="461.0" x2="500.0" y2="484.0" stroke="#8b98a5" stroke-width="1"/><rect x="500.0" y="464.0" width="180.5" height="17.0" fill="#0B8F55" stroke="none"/><text x="688.5" y="477.0" font-family="sans-serif" font-size="10" text-anchor="start" fill="#0B8F55" font-weight="normal">+0.119</text><text x="125.0" y="508.0" font-family="sans-serif" font-size="11" text-anchor="start" fill="#0B8F55" font-weight="bold">E022</text><line x1="500.0" y1="492.0" x2="500.0" y2="515.0" stroke="#8b98a5" stroke-width="1"/><rect x="500.0" y="495.0" width="177.3" height="17.0" fill="#0B8F55" stroke="none"/><text x="685.3" y="508.0" font-family="sans-serif" font-size="10" text-anchor="start" fill="#0B8F55" font-weight="normal">+0.116</text><text x="125.0" y="539.0" font-family="sans-serif" font-size="11" text-anchor="start" fill="#0B8F55" font-weight="bold">E087</text><line x1="500.0" y1="523.0" x2="500.0" y2="546.0" stroke="#8b98a5" stroke-width="1"/><rect x="500.0" y="526.0" width="176.2" height="17.0" fill="#0B8F55" stroke="none"/><text x="684.2" y="539.0" font-family="sans-serif" font-size="10" text-anchor="start" fill="#0B8F55" font-weight="normal">+0.116</text></svg>