<svg xmlns="http://www.w3.org/2000/svg" width="1000" height="620" viewBox="0 0 1000 620"><rect width="100%" height="100%" fill="white"/><text x="45" y="38" font-family="sans-serif" font-size="22" font-weight="bold" fill="#16222e">Why runs are classified as failures</text><text x="45" y="62" font-family="sans-serif" font-size="13" fill="#536273">X = policy; Y = inclusive component rate (ratio); components may overlap</text><text x="95.0" y="555.0" font-family="sans-serif" font-size="12" text-anchor="middle" fill="#25313c" font-weight="bold">P0</text><rect x="67.0" y="215.4" width="18.0" height="304.6" fill="#D24A4A" stroke="none"/><rect x="89.0" y="520.0" width="18.0" height="0.0" fill="#F28E2B" stroke="none"/><rect x="111.0" y="520.0" width="18.0" height="0.0" fill="#4E79A7" stroke="none"/><text x="181.0" y="555.0" font-family="sans-serif" font-size="12" text-anchor="middle" fill="#25313c" font-weight="bold">P1</text><rect x="153.0" y="203.4" width="18.0" height="316.6" fill="#D24A4A" stroke="none"/><rect x="175.0" y="520.0" width="18.0" height="0.0" fill="#F28E2B" stroke="none"/><rect x="197.0" y="520.0" width="18.0" height="0.0" fill="#4E79A7" stroke="none"/><text x="267.0" y="555.0" font-family="sans-serif" font-size="12" text-anchor="middle" fill="#25313c" font-weight="bold">P2</text><rect x="239.0" y="201.7" width="18.0" height="318.3" fill="#D24A4A" stroke="none"/><rect x="261.0" y="520.0" width="18.0" height="0.0" fill="#F28E2B" stroke="none"/><rect x="283.0" y="520.0" width="18.0" height="0.0" fill="#4E79A7" stroke="none"/><text x="353.0" y="555.0" font-family="sans-serif" font-size="12" text-anchor="middle" fill="#25313c" font-weight="bold">P3</text><rect x="325.0" y="209.9" width="18.0" height="310.1" fill="#D24A4A" stroke="none"/><rect x="347.0" y="520.0" width="18.0" height="0.0" fill="#F28E2B" stroke="none"/><rect x="369.0" y="520.0" width="18.0" height="0.0" fill="#4E79A7" stroke="none"/><text x="439.0" y="555.0" font-family="sans-serif" font-size="12" text-anchor="middle" fill="#25313c" font-weight="bold">P4</text><rect x="411.0" y="117.6" width="18.0" height="402.4" fill="#D24A4A" stroke="none"/><rect x="433.0" y="520.0" width="18.0" height="0.0" fill="#F28E2B" stroke="none"/><rect x="455.0" y="520.0" width="18.0" height="0.0" fill="#4E79A7" stroke="none"/><text x="525.0" y="555.0" font-family="sans-serif" font-size="12" text-anchor="middle" fill="#25313c" font-weight="bold">P5</text><rect x="497.0" y="191.7" width="18.0" height="328.3" fill="#D24A4A" stroke="none"/><rect x="519.0" y="520.0" width="18.0" height="0.0" fill="#F28E2B" stroke="none"/><rect x="541.0" y="520.0" width="18.0" height="0.0" fill="#4E79A7" stroke="none"/><text x="611.0" y="555.0" font-family="sans-serif" font-size="12" text-anchor="middle" fill="#25313c" font-weight="bold">P6</text><rect x="583.0" y="197.0" width="18.0" height="323.0" fill="#D24A4A" stroke="none"/><rect x="605.0" y="520.0" width="18.0" height="0.0" fill="#F28E2B" stroke="none"/><rect x="627.0" y="520.0" width="18.0" height="0.0" fill="#4E79A7" stroke="none"/><text x="697.0" y="555.0" font-family="sans-serif" font-size="12" text-anchor="middle" fill="#25313c" font-weight="bold">P7</text><rect x="669.0" y="254.1" width="18.0" height="265.9" fill="#D24A4A" stroke="none"/><rect x="691.0" y="520.0" width="18.0" height="0.0" fill="#F28E2B" stroke="none"/><rect x="713.0" y="520.0" width="18.0" height="0.0" fill="#4E79A7" stroke="none"/><text x="783.0" y="555.0" font-family="sans-serif" font-size="12" text-anchor="middle" fill="#25313c" font-weight="bold">P8</text><rect x="755.0" y="209.0" width="18.0" height="311.0" fill="#D24A4A" stroke="none"/><rect x="777.0" y="520.0" width="18.0" height="0.0" fill="#F28E2B" stroke="none"/><rect x="799.0" y="520.0" width="18.0" height="0.0" fill="#4E79A7" stroke="none"/><text x="869.0" y="555.0" font-family="sans-serif" font-size="12" text-anchor="middle" fill="#25313c" font-weight="bold">P9</text><rect x="841.0" y="205.8" width="18.0" height="314.2" fill="#D24A4A" stroke="none"/><rect x="863.0" y="520.0" width="18.0" height="0.0" fill="#F28E2B" stroke="none"/><rect x="885.0" y="520.0" width="18.0" height="0.0" fill="#4E79A7" stroke="none"/><rect x="570.0" y="82.0" width="14.0" height="14.0" fill="#D24A4A" stroke="none"/><text x="590.0" y="94.0" font-family="sans-serif" font-size="10" text-anchor="start" fill="#25313c" font-weight="normal">Consecutive</text><rect x="700.0" y="82.0" width="14.0" height="14.0" fill="#F28E2B" stroke="none"/><text x="720.0" y="94.0" font-family="sans-serif" font-size="10" text-anchor="start" fill="#25313c" font-weight="normal">Cumulative shortage</text><rect x="830.0" y="82.0" width="14.0" height="14.0" fill="#4E79A7" stroke="none"/><text x="850.0" y="94.0" font-family="sans-serif" font-size="10" text-anchor="start" fill="#25313c" font-weight="normal">Profit</text><line x1="65.0" y1="520.0" x2="955.0" y2="520.0" stroke="#dce2e8" stroke-width="1"/><text x="57.0" y="524.0" font-family="sans-serif" font-size="10" text-anchor="end" fill="#25313c" font-weight="normal">0.00</text><line x1="65.0" y1="417.5" x2="955.0" y2="417.5" stroke="#dce2e8" stroke-width="1"/><text x="57.0" y="421.5" font-family="sans-serif" font-size="10" text-anchor="end" fill="#25313c" font-weight="normal">0.25</text><line x1="65.0" y1="315.0" x2="955.0" y2="315.0" stroke="#dce2e8" stroke-width="1"/><text x="57.0" y="319.0" font-family="sans-serif" font-size="10" text-anchor="end" fill="#25313c" font-weight="normal">0.50</text><line x1="65.0" y1="212.5" x2="955.0" y2="212.5" stroke="#dce2e8" stroke-width="1"/><text x="57.0" y="216.5" font-family="sans-serif" font-size="10" text-anchor="end" fill="#25313c" font-weight="normal">0.75</text><line x1="65.0" y1="110.0" x2="955.0" y2="110.0" stroke="#dce2e8" stroke-width="1"/><text x="57.0" y="114.0" font-family="sans-serif" font-size="10" text-anchor="end" fill="#25313c" font-weight="normal">1.00</text><text x="510.0" y="580.0" font-family="sans-serif" font-size="12" text-anchor="middle" fill="#25313c" font-weight="bold">X: Policy (P0-P9)</text><text x="25.0" y="315.0" font-family="sans-serif" font-size="11" text-anchor="middle" fill="#25313c" font-weight="normal" transform="rotate(-90 25 315)">Y: Inclusive failure-component rate (0-1)</text><text x="45" y="602" font-family="sans-serif" font-size="11" fill="#667585">Failure is triggered by profit, cumulative shortage, or three consecutive shortage months.</text></svg>