<svg xmlns="http://www.w3.org/2000/svg" width="1000" height="620" viewBox="0 0 1000 620"><rect width="100%" height="100%" fill="white"/><text x="45" y="38" font-family="sans-serif" font-size="22" font-weight="bold" fill="#16222e">Sensitivity of failure classification</text><text x="45" y="62" font-family="sans-serif" font-size="13" fill="#536273">Failure rate when the consecutive-shortage threshold changes from 2 to 6 months</text><line x1="90.0" y1="520.0" x2="930.0" y2="520.0" stroke="#dce2e8" stroke-width="1"/><text x="78.0" y="524.0" font-family="sans-serif" font-size="10" text-anchor="end" fill="#25313c" font-weight="normal">0.00</text><line x1="90.0" y1="420.0" x2="930.0" y2="420.0" stroke="#dce2e8" stroke-width="1"/><text x="78.0" y="424.0" font-family="sans-serif" font-size="10" text-anchor="end" fill="#25313c" font-weight="normal">0.25</text><line x1="90.0" y1="320.0" x2="930.0" y2="320.0" stroke="#dce2e8" stroke-width="1"/><text x="78.0" y="324.0" font-family="sans-serif" font-size="10" text-anchor="end" fill="#25313c" font-weight="normal">0.50</text><line x1="90.0" y1="220.0" x2="930.0" y2="220.0" stroke="#dce2e8" stroke-width="1"/><text x="78.0" y="224.0" font-family="sans-serif" font-size="10" text-anchor="end" fill="#25313c" font-weight="normal">0.75</text><line x1="90.0" y1="120.0" x2="930.0" y2="120.0" stroke="#dce2e8" stroke-width="1"/><text x="78.0" y="124.0" font-family="sans-serif" font-size="10" text-anchor="end" fill="#25313c" font-weight="normal">1.00</text><circle cx="150" cy="186.0" r="6" fill="#4E79A7"/><text x="150.0" y="175.0" font-family="sans-serif" font-size="10" text-anchor="middle" fill="#4E79A7" font-weight="normal">0.83</text><circle cx="330" cy="222.9" r="6" fill="#4E79A7"/><text x="330.0" y="211.9" font-family="sans-serif" font-size="10" text-anchor="middle" fill="#4E79A7" font-weight="normal">0.74</text><circle cx="510" cy="252.9" r="6" fill="#4E79A7"/><text x="510.0" y="241.9" font-family="sans-serif" font-size="10" text-anchor="middle" fill="#4E79A7" font-weight="normal">0.67</text><circle cx="690" cy="294.6" r="6" fill="#4E79A7"/><text x="690.0" y="283.6" font-family="sans-serif" font-size="10" text-anchor="middle" fill="#4E79A7" font-weight="normal">0.56</text><circle cx="870" cy="353.4" r="6" fill="#4E79A7"/><text x="870.0" y="342.4" font-family="sans-serif" font-size="10" text-anchor="middle" fill="#4E79A7" font-weight="normal">0.42</text><polyline points="150,186.0 330,222.9 510,252.9 690,294.6 870,353.4" fill="none" stroke="#4E79A7" stroke-width="3"/><circle cx="150" cy="222.9" r="6" fill="#F28E2B"/><text x="150.0" y="211.9" font-family="sans-serif" font-size="10" text-anchor="middle" fill="#F28E2B" font-weight="normal">0.74</text><circle cx="330" cy="260.6" r="6" fill="#F28E2B"/><text x="330.0" y="249.6" font-family="sans-serif" font-size="10" text-anchor="middle" fill="#F28E2B" font-weight="normal">0.65</text><circle cx="510" cy="287.7" r="6" fill="#F28E2B"/><text x="510.0" y="276.7" font-family="sans-serif" font-size="10" text-anchor="middle" fill="#F28E2B" font-weight="normal">0.58</text><circle cx="690" cy="333.4" r="6" fill="#F28E2B"/><text x="690.0" y="322.4" font-family="sans-serif" font-size="10" text-anchor="middle" fill="#F28E2B" font-weight="normal">0.47</text><circle cx="870" cy="401.7" r="6" fill="#F28E2B"/><text x="870.0" y="390.7" font-family="sans-serif" font-size="10" text-anchor="middle" fill="#F28E2B" font-weight="normal">0.30</text><polyline points="150,222.9 330,260.6 510,287.7 690,333.4 870,401.7" fill="none" stroke="#F28E2B" stroke-width="3"/><circle cx="150" cy="181.4" r="6" fill="#0B8F55"/><text x="150.0" y="170.4" font-family="sans-serif" font-size="10" text-anchor="middle" fill="#0B8F55" font-weight="normal">0.85</text><circle cx="330" cy="216.6" r="6" fill="#0B8F55"/><text x="330.0" y="205.6" font-family="sans-serif" font-size="10" text-anchor="middle" fill="#0B8F55" font-weight="normal">0.76</text><circle cx="510" cy="244.3" r="6" fill="#0B8F55"/><text x="510.0" y="233.3" font-family="sans-serif" font-size="10" text-anchor="middle" fill="#0B8F55" font-weight="normal">0.69</text><circle cx="690" cy="306.6" r="6" fill="#0B8F55"/><text x="690.0" y="295.6" font-family="sans-serif" font-size="10" text-anchor="middle" fill="#0B8F55" font-weight="normal">0.53</text><circle cx="870" cy="398.3" r="6" fill="#0B8F55"/><text x="870.0" y="387.3" font-family="sans-serif" font-size="10" text-anchor="middle" fill="#0B8F55" font-weight="normal">0.30</text><polyline points="150,181.4 330,216.6 510,244.3 690,306.6 870,398.3" fill="none" stroke="#0B8F55" stroke-width="3"/><text x="150.0" y="548.0" font-family="sans-serif" font-size="12" text-anchor="middle" fill="#25313c" font-weight="bold">2</text><text x="330.0" y="548.0" font-family="sans-serif" font-size="12" text-anchor="middle" fill="#25313c" font-weight="bold">3</text><text x="510.0" y="548.0" font-family="sans-serif" font-size="12" text-anchor="middle" fill="#25313c" font-weight="bold">4</text><text x="690.0" y="548.0" font-family="sans-serif" font-size="12" text-anchor="middle" fill="#25313c" font-weight="bold">5</text><text x="870.0" y="548.0" font-family="sans-serif" font-size="12" text-anchor="middle" fill="#25313c" font-weight="bold">6</text><rect x="650.0" y="82.0" width="14.0" height="14.0" fill="#4E79A7" stroke="none"/><text x="670.0" y="94.0" font-family="sans-serif" font-size="11" text-anchor="start" fill="#4E79A7" font-weight="bold">P0</text><rect x="730.0" y="82.0" width="14.0" height="14.0" fill="#F28E2B" stroke="none"/><text x="750.0" y="94.0" font-family="sans-serif" font-size="11" text-anchor="start" fill="#F28E2B" font-weight="bold">P7</text><rect x="810.0" y="82.0" width="14.0" height="14.0" fill="#0B8F55" stroke="none"/><text x="830.0" y="94.0" font-family="sans-serif" font-size="11" text-anchor="start" fill="#0B8F55" font-weight="bold">P8</text><text x="45" y="602" font-family="sans-serif" font-size="11" fill="#667585">This changes the diagnostic classification only; simulated decisions and objective values are unchanged.</text></svg>