<svg xmlns="http://www.w3.org/2000/svg" width="1000" height="620" viewBox="0 0 1000 620"><rect width="100%" height="100%" fill="white"/><text x="50.0" y="38.0" font-size="22" text-anchor="start" fill="#16222e" font-weight="bold">Cumulative objective trajectory</text><text x="50.0" y="62.0" font-size="13" text-anchor="start" fill="#536273" font-weight="normal">Probability-weighted mean by policy; P0 and P8 emphasized</text><rect x="80.0" y="90.0" width="870.0" height="435.0" fill="#fbfcfd" stroke="#d8dee6" stroke-width="1" opacity="1"/><line x1="80.0" y1="525.0" x2="950.0" y2="525.0" stroke="#e7ebef" stroke-width="1"/><text x="70.0" y="529.0" font-size="11" text-anchor="end" fill="#25313c" font-weight="normal">0k</text><line x1="80.0" y1="433.8" x2="950.0" y2="433.8" stroke="#e7ebef" stroke-width="1"/><text x="70.0" y="437.8" font-size="11" text-anchor="end" fill="#25313c" font-weight="normal">40k</text><line x1="80.0" y1="342.5" x2="950.0" y2="342.5" stroke="#e7ebef" stroke-width="1"/><text x="70.0" y="346.5" font-size="11" text-anchor="end" fill="#25313c" font-weight="normal">80k</text><line x1="80.0" y1="251.3" x2="950.0" y2="251.3" stroke="#e7ebef" stroke-width="1"/><text x="70.0" y="255.3" font-size="11" text-anchor="end" fill="#25313c" font-weight="normal">120k</text><line x1="80.0" y1="160.0" x2="950.0" y2="160.0" stroke="#e7ebef" stroke-width="1"/><text x="70.0" y="164.0" font-size="11" text-anchor="end" fill="#25313c" font-weight="normal">160k</text><line x1="80.0" y1="68.8" x2="950.0" y2="68.8" stroke="#e7ebef" stroke-width="1"/><text x="70.0" y="72.8" font-size="11" text-anchor="end" fill="#25313c" font-weight="normal">200k</text><line x1="80.0" y1="90.0" x2="80.0" y2="525.0" stroke="#eef1f4" stroke-width="1"/><text x="80.0" y="547.0" font-size="11" text-anchor="middle" fill="#25313c" font-weight="normal">1</text><line x1="242.2" y1="90.0" x2="242.2" y2="525.0" stroke="#eef1f4" stroke-width="1"/><text x="242.2" y="547.0" font-size="11" text-anchor="middle" fill="#25313c" font-weight="normal">12</text><line x1="419.2" y1="90.0" x2="419.2" y2="525.0" stroke="#eef1f4" stroke-width="1"/><text x="419.2" y="547.0" font-size="11" text-anchor="middle" fill="#25313c" font-weight="normal">24</text><line x1="596.1" y1="90.0" x2="596.1" y2="525.0" stroke="#eef1f4" stroke-width="1"/><text x="596.1" y="547.0" font-size="11" text-anchor="middle" fill="#25313c" font-weight="normal">36</text><line x1="773.1" y1="90.0" x2="773.1" y2="525.0" stroke="#eef1f4" stroke-width="1"/><text x="773.1" y="547.0" font-size="11" text-anchor="middle" fill="#25313c" font-weight="normal">48</text><line x1="950.0" y1="90.0" x2="950.0" y2="525.0" stroke="#eef1f4" stroke-width="1"/><text x="950.0" y="547.0" font-size="11" text-anchor="middle" fill="#25313c" font-weight="normal">60</text><polyline points="80.0,523.2 94.7,521.3 109.5,519.3 124.2,517.1 139.0,514.6 153.7,511.7 168.5,508.2 183.2,504.0 198.0,499.0 212.7,493.3 227.5,486.9 242.2,480.2 256.9,473.1 271.7,465.7 286.4,458.3 301.2,450.6 315.9,442.9 330.7,435.3 345.4,428.0 360.2,420.7 374.9,413.2 389.7,405.9 404.4,398.7 419.2,391.5 433.9,384.3 448.6,377.6 463.4,370.7 478.1,363.8 492.9,356.8 507.6,349.7 522.4,342.5 537.1,335.4 551.9,328.0 566.6,320.5 581.4,312.5 596.1,304.1 610.8,295.4 625.6,286.3 640.3,277.3 655.1,268.6 669.8,260.0 684.6,251.4 699.3,242.8 714.1,234.2 728.8,225.7 743.6,217.2 758.3,208.6 773.1,200.0 787.8,191.5 802.5,183.2 817.3,175.1 832.0,167.2 846.8,159.5 861.5,152.2 876.3,145.3 891.0,138.8 905.8,132.7 920.5,127.2 935.3,121.9 950.0,116.1" fill="none" stroke="#4E79A7" stroke-width="3" opacity="1"/><polyline points="80.0,523.2 94.7,521.3 109.5,519.3 124.2,517.1 139.0,514.6 153.7,511.7 168.5,508.2 183.2,504.0 198.0,499.0 212.7,493.3 227.5,487.1 242.2,480.4 256.9,473.4 271.7,466.1 286.4,458.7 301.2,450.9 315.9,443.3 330.7,435.6 345.4,428.3 360.2,421.0 374.9,413.5 389.7,406.1 404.4,399.0 419.2,391.9 433.9,384.9 448.6,378.3 463.4,371.6 478.1,364.8 492.9,358.0 507.6,351.2 522.4,344.1 537.1,337.1 551.9,329.7 566.6,322.3 581.4,314.3 596.1,306.0 610.8,297.3 625.6,288.3 640.3,279.3 655.1,270.6 669.8,262.1 684.6,253.6 699.3,245.1 714.1,236.6 728.8,228.2 743.6,219.5 758.3,210.8 773.1,202.0 787.8,193.3 802.5,184.7 817.3,176.1 832.0,167.7 846.8,159.5 861.5,151.7 876.3,144.3 891.0,137.5 905.8,131.1 920.5,125.3 935.3,119.9 950.0,114.0" fill="none" stroke="#F28E2B" stroke-width="1.7" opacity="0.75"/><polyline points="80.0,523.2 94.7,521.3 109.5,519.3 124.2,517.1 139.0,514.6 153.7,511.7 168.5,508.2 183.2,504.1 198.0,499.1 212.7,493.5 227.5,487.2 242.2,480.5 256.9,473.5 271.7,466.2 286.4,458.8 301.2,451.1 315.9,443.5 330.7,435.8 345.4,428.5 360.2,421.2 374.9,413.7 389.7,406.3 404.4,399.1 419.2,391.8 433.9,384.6 448.6,377.7 463.4,370.8 478.1,363.8 492.9,356.6 507.6,349.5 522.4,342.2 537.1,335.0 551.9,327.4 566.6,319.8 581.4,311.8 596.1,303.3 610.8,294.6 625.6,285.6 640.3,276.6 655.1,268.0 669.8,259.4 684.6,250.9 699.3,242.4 714.1,234.0 728.8,225.7 743.6,217.2 758.3,208.8 773.1,200.3 787.8,191.9 802.5,183.5 817.3,175.1 832.0,166.8 846.8,158.9 861.5,151.4 876.3,144.4 891.0,137.8 905.8,131.6 920.5,125.8 935.3,120.3 950.0,114.2" fill="none" stroke="#76B7B2" stroke-width="1.7" opacity="0.75"/><polyline points="80.0,523.2 94.7,521.4 109.5,519.6 124.2,517.6 139.0,515.5 153.7,513.0 168.5,510.2 183.2,506.9 198.0,503.1 212.7,498.7 227.5,493.7 242.2,488.4 256.9,482.9 271.7,477.1 286.4,471.0 301.2,464.5 315.9,458.0 330.7,451.3 345.4,444.9 360.2,438.5 374.9,431.6 389.7,424.8 404.4,418.2 419.2,411.4 433.9,404.7 448.6,398.2 463.4,391.7 478.1,384.9 492.9,378.1 507.6,371.2 522.4,364.2 537.1,357.2 551.9,349.9 566.6,342.5 581.4,334.6 596.1,326.2 610.8,317.6 625.6,308.6 640.3,299.7 655.1,291.0 669.8,282.5 684.6,274.0 699.3,265.5 714.1,257.2 728.8,249.0 743.6,240.6 758.3,232.2 773.1,223.7 787.8,215.2 802.5,206.9 817.3,198.6 832.0,190.5 846.8,182.7 861.5,175.4 876.3,168.4 891.0,161.9 905.8,155.7 920.5,150.0 935.3,144.8 950.0,138.9" fill="none" stroke="#FF9DA7" stroke-width="1.7" opacity="0.75"/><polyline points="80.0,523.2 94.7,521.3 109.5,519.3 124.2,517.1 139.0,514.6 153.7,511.7 168.5,508.1 183.2,503.8 198.0,498.8 212.7,493.2 227.5,486.9 242.2,480.2 256.9,473.2 271.7,465.9 286.4,458.6 301.2,450.9 315.9,443.3 330.7,435.6 345.4,428.3 360.2,421.0 374.9,413.4 389.7,406.0 404.4,398.8 419.2,391.6 433.9,384.4 448.6,377.6 463.4,370.7 478.1,363.8 492.9,356.7 507.6,349.6 522.4,342.3 537.1,335.1 551.9,327.5 566.6,319.9 581.4,311.8 596.1,303.3 610.8,294.4 625.6,285.3 640.3,276.2 655.1,267.4 669.8,258.7 684.6,250.1 699.3,241.5 714.1,233.0 728.8,224.5 743.6,215.9 758.3,207.3 773.1,198.6 787.8,190.0 802.5,181.5 817.3,173.1 832.0,164.8 846.8,156.8 861.5,149.1 876.3,141.8 891.0,134.9 905.8,128.4 920.5,122.4 935.3,116.9 950.0,110.7" fill="none" stroke="#0B8F55" stroke-width="3" opacity="1"/><polyline points="80.0,523.2 94.7,521.4 109.5,519.6 124.2,517.8 139.0,515.7 153.7,513.4 168.5,510.7 183.2,507.6 198.0,504.0 212.7,499.9 227.5,495.3 242.2,490.5 256.9,485.3 271.7,480.0 286.4,474.2 301.2,468.0 315.9,461.6 330.7,455.0 345.4,448.9 360.2,442.6 374.9,435.9 389.7,429.3 404.4,422.8 419.2,416.4 433.9,410.1 448.6,404.4 463.4,398.8 478.1,393.2 492.9,387.6 507.6,382.0 522.4,376.4 537.1,371.2 551.9,365.8 566.6,360.5 581.4,354.5 596.1,347.9 610.8,340.5 625.6,332.6 640.3,324.6 655.1,316.9 669.8,309.5 684.6,302.3 699.3,295.4 714.1,288.8 728.8,282.8 743.6,277.4 758.3,272.5 773.1,268.1 787.8,264.2 802.5,260.6 817.3,257.3 832.0,254.1 846.8,251.1 861.5,248.2 876.3,245.5 891.0,242.9 905.8,240.5 920.5,238.3 935.3,236.2 950.0,233.6" fill="none" stroke="#9C755F" stroke-width="1.7" opacity="0.75"/><line x1="110.0" y1="568.0" x2="138.0" y2="568.0" stroke="#4E79A7" stroke-width="3"/><text x="144.0" y="572.0" font-size="12" text-anchor="start" fill="#4E79A7" font-weight="bold">P0</text><line x1="245.0" y1="568.0" x2="273.0" y2="568.0" stroke="#F28E2B" stroke-width="3"/><text x="279.0" y="572.0" font-size="12" text-anchor="start" fill="#F28E2B" font-weight="bold">P1</text><line x1="380.0" y1="568.0" x2="408.0" y2="568.0" stroke="#76B7B2" stroke-width="3"/><text x="414.0" y="572.0" font-size="12" text-anchor="start" fill="#76B7B2" font-weight="bold">P3</text><line x1="515.0" y1="568.0" x2="543.0" y2="568.0" stroke="#FF9DA7" stroke-width="3"/><text x="549.0" y="572.0" font-size="12" text-anchor="start" fill="#FF9DA7" font-weight="bold">P7</text><line x1="650.0" y1="568.0" x2="678.0" y2="568.0" stroke="#0B8F55" stroke-width="3"/><text x="684.0" y="572.0" font-size="12" text-anchor="start" fill="#0B8F55" font-weight="bold">P8</text><line x1="785.0" y1="568.0" x2="813.0" y2="568.0" stroke="#9C755F" stroke-width="3"/><text x="819.0" y="572.0" font-size="12" text-anchor="start" fill="#9C755F" font-weight="bold">P9</text><text x="50.0" y="602.0" font-size="11" text-anchor="start" fill="#697887" font-weight="normal">Figure 1. Values are discounted and penalty-adjusted under the reference configuration.</text></svg>