<svg xmlns="http://www.w3.org/2000/svg" width="1000" height="620" viewBox="0 0 1000 620"><rect width="100%" height="100%" fill="white"/><text x="50.0" y="38.0" font-size="22" text-anchor="start" fill="#16222e" font-weight="bold">Observed outcome distributions and normal overlays</text><text x="50.0" y="62.0" font-size="13" text-anchor="start" fill="#536273" font-weight="normal">14,000-run experiment subset: 1,400 actual outcomes per displayed policy</text><rect x="80.0" y="90.0" width="870.0" height="435.0" fill="#fbfcfd" stroke="#d8dee6" stroke-width="1" opacity="1"/><line x1="80.0" y1="525.0" x2="950.0" y2="525.0" stroke="#e7ebef" stroke-width="1"/><text x="70.0" y="529.0" font-size="11" text-anchor="end" fill="#25313c" font-weight="normal">0.000</text><line x1="80.0" y1="426.1" x2="950.0" y2="426.1" stroke="#e7ebef" stroke-width="1"/><text x="70.0" y="430.1" font-size="11" text-anchor="end" fill="#25313c" font-weight="normal">0.006</text><line x1="80.0" y1="327.3" x2="950.0" y2="327.3" stroke="#e7ebef" stroke-width="1"/><text x="70.0" y="331.3" font-size="11" text-anchor="end" fill="#25313c" font-weight="normal">0.012</text><line x1="80.0" y1="228.4" x2="950.0" y2="228.4" stroke="#e7ebef" stroke-width="1"/><text x="70.0" y="232.4" font-size="11" text-anchor="end" fill="#25313c" font-weight="normal">0.018</text><line x1="80.0" y1="129.5" x2="950.0" y2="129.5" stroke="#e7ebef" stroke-width="1"/><text x="70.0" y="133.5" font-size="11" text-anchor="end" fill="#25313c" font-weight="normal">0.024</text><line x1="160.9" y1="90.0" x2="160.9" y2="525.0" stroke="#eef1f4" stroke-width="1"/><text x="160.9" y="547.0" font-size="11" text-anchor="middle" fill="#25313c" font-weight="normal">120k</text><line x1="295.7" y1="90.0" x2="295.7" y2="525.0" stroke="#eef1f4" stroke-width="1"/><text x="295.7" y="547.0" font-size="11" text-anchor="middle" fill="#25313c" font-weight="normal">140k</text><line x1="430.6" y1="90.0" x2="430.6" y2="525.0" stroke="#eef1f4" stroke-width="1"/><text x="430.6" y="547.0" font-size="11" text-anchor="middle" fill="#25313c" font-weight="normal">160k</text><line x1="565.4" y1="90.0" x2="565.4" y2="525.0" stroke="#eef1f4" stroke-width="1"/><text x="565.4" y="547.0" font-size="11" text-anchor="middle" fill="#25313c" font-weight="normal">180k</text><line x1="700.2" y1="90.0" x2="700.2" y2="525.0" stroke="#eef1f4" stroke-width="1"/><text x="700.2" y="547.0" font-size="11" text-anchor="middle" fill="#25313c" font-weight="normal">200k</text><line x1="835.0" y1="90.0" x2="835.0" y2="525.0" stroke="#eef1f4" stroke-width="1"/><text x="835.0" y="547.0" font-size="11" text-anchor="middle" fill="#25313c" font-weight="normal">220k</text><rect x="80.0" y="507.2" width="27.2" height="17.8" fill="#4E79A7" stroke="none" stroke-width="1" opacity="0.22"/><rect x="107.2" y="501.2" width="27.2" height="23.8" fill="#4E79A7" stroke="none" stroke-width="1" opacity="0.22"/><rect x="134.4" y="418.0" width="27.2" height="107.0" fill="#4E79A7" stroke="none" stroke-width="1" opacity="0.22"/><rect x="161.6" y="391.2" width="27.2" height="133.8" fill="#4E79A7" stroke="none" stroke-width="1" opacity="0.22"/><rect x="188.8" y="328.8" width="27.2" height="196.2" fill="#4E79A7" stroke="none" stroke-width="1" opacity="0.22"/><rect x="215.9" y="290.1" width="27.2" height="234.9" fill="#4E79A7" stroke="none" stroke-width="1" opacity="0.22"/><rect x="243.1" y="212.8" width="27.2" height="312.2" fill="#4E79A7" stroke="none" stroke-width="1" opacity="0.22"/><rect x="270.3" y="159.3" width="27.2" height="365.7" fill="#4E79A7" stroke="none" stroke-width="1" opacity="0.22"/><rect x="297.5" y="171.2" width="27.2" height="353.8" fill="#4E79A7" stroke="none" stroke-width="1" opacity="0.22"/><rect x="324.7" y="162.3" width="27.2" height="362.7" fill="#4E79A7" stroke="none" stroke-width="1" opacity="0.22"/><rect x="351.9" y="129.5" width="27.2" height="395.5" fill="#4E79A7" stroke="none" stroke-width="1" opacity="0.22"/><rect x="379.1" y="239.6" width="27.2" height="285.4" fill="#4E79A7" stroke="none" stroke-width="1" opacity="0.22"/><rect x="406.2" y="281.2" width="27.2" height="243.8" fill="#4E79A7" stroke="none" stroke-width="1" opacity="0.22"/><rect x="433.4" y="299.0" width="27.2" height="226.0" fill="#4E79A7" stroke="none" stroke-width="1" opacity="0.22"/><rect x="460.6" y="394.2" width="27.2" height="130.8" fill="#4E79A7" stroke="none" stroke-width="1" opacity="0.22"/><rect x="487.8" y="453.6" width="27.2" height="71.4" fill="#4E79A7" stroke="none" stroke-width="1" opacity="0.22"/><rect x="515.0" y="429.9" width="27.2" height="95.1" fill="#4E79A7" stroke="none" stroke-width="1" opacity="0.22"/><rect x="542.2" y="459.6" width="27.2" height="65.4" fill="#4E79A7" stroke="none" stroke-width="1" opacity="0.22"/><rect x="569.4" y="447.7" width="27.2" height="77.3" fill="#4E79A7" stroke="none" stroke-width="1" opacity="0.22"/><rect x="596.6" y="444.7" width="27.2" height="80.3" fill="#4E79A7" stroke="none" stroke-width="1" opacity="0.22"/><rect x="623.8" y="456.6" width="27.2" height="68.4" fill="#4E79A7" stroke="none" stroke-width="1" opacity="0.22"/><rect x="650.9" y="447.7" width="27.2" height="77.3" fill="#4E79A7" stroke="none" stroke-width="1" opacity="0.22"/><rect x="678.1" y="468.5" width="27.2" height="56.5" fill="#4E79A7" stroke="none" stroke-width="1" opacity="0.22"/><rect x="705.3" y="465.5" width="27.2" height="59.5" fill="#4E79A7" stroke="none" stroke-width="1" opacity="0.22"/><rect x="732.5" y="483.4" width="27.2" height="41.6" fill="#4E79A7" stroke="none" stroke-width="1" opacity="0.22"/><rect x="759.7" y="495.3" width="27.2" height="29.7" fill="#4E79A7" stroke="none" stroke-width="1" opacity="0.22"/><rect x="786.9" y="504.2" width="27.2" height="20.8" fill="#4E79A7" stroke="none" stroke-width="1" opacity="0.22"/><rect x="814.1" y="513.1" width="27.2" height="11.9" fill="#4E79A7" stroke="none" stroke-width="1" opacity="0.22"/><rect x="841.2" y="513.1" width="27.2" height="11.9" fill="#4E79A7" stroke="none" stroke-width="1" opacity="0.22"/><rect x="868.4" y="522.0" width="27.2" height="3.0" fill="#4E79A7" stroke="none" stroke-width="1" opacity="0.22"/><rect x="895.6" y="522.0" width="27.2" height="3.0" fill="#4E79A7" stroke="none" stroke-width="1" opacity="0.22"/><rect x="922.8" y="525.0" width="27.2" height="0.0" fill="#4E79A7" stroke="none" stroke-width="1" opacity="0.22"/><polyline points="80.0,481.1 83.6,479.0 87.2,476.9 90.9,474.6 94.5,472.3 98.1,469.9 101.8,467.4 105.4,464.9 109.0,462.3 112.6,459.6 116.3,456.8 119.9,453.9 123.5,451.0 127.1,448.0 130.7,444.9 134.4,441.8 138.0,438.5 141.6,435.2 145.2,431.8 148.9,428.4 152.5,424.9 156.1,421.3 159.8,417.6 163.4,413.9 167.0,410.1 170.6,406.3 174.2,402.4 177.9,398.4 181.5,394.4 185.1,390.4 188.8,386.2 192.4,382.1 196.0,377.9 199.6,373.7 203.2,369.4 206.9,365.2 210.5,360.9 214.1,356.5 217.8,352.2 221.4,347.8 225.0,343.5 228.6,339.1 232.3,334.8 235.9,330.5 239.5,326.1 243.1,321.8 246.8,317.6 250.4,313.3 254.0,309.1 257.6,305.0 261.2,300.9 264.9,296.8 268.5,292.8 272.1,288.9 275.8,285.0 279.4,281.3 283.0,277.6 286.6,273.9 290.3,270.4 293.9,267.0 297.5,263.7 301.1,260.5 304.8,257.4 308.4,254.5 312.0,251.6 315.6,248.9 319.2,246.3 322.9,243.9 326.5,241.6 330.1,239.5 333.7,237.5 337.4,235.6 341.0,233.9 344.6,232.4 348.3,231.0 351.9,229.8 355.5,228.8 359.1,227.9 362.8,227.2 366.4,226.6 370.0,226.3 373.6,226.1 377.3,226.1 380.9,226.2 384.5,226.5 388.1,227.0 391.8,227.7 395.4,228.5 399.0,229.5 402.6,230.7 406.2,232.0 409.9,233.5 413.5,235.2 417.1,237.0 420.7,239.0 424.4,241.1 428.0,243.3 431.6,245.7 435.3,248.3 438.9,251.0 442.5,253.8 446.1,256.7 449.7,259.8 453.4,262.9 457.0,266.2 460.6,269.6 464.2,273.1 467.9,276.7 471.5,280.4 475.1,284.1 478.8,287.9 482.4,291.9 486.0,295.8 489.6,299.9 493.2,304.0 496.9,308.1 500.5,312.3 504.1,316.5 507.7,320.8 511.4,325.1 515.0,329.4 518.6,333.8 522.2,338.1 525.9,342.4 529.5,346.8 533.1,351.1 536.8,355.5 540.4,359.8 544.0,364.1 547.6,368.4 551.2,372.7 554.9,376.9 558.5,381.1 562.1,385.2 565.8,389.4 569.4,393.4 573.0,397.5 576.6,401.4 580.2,405.3 583.9,409.2 587.5,413.0 591.1,416.7 594.8,420.4 598.4,424.0 602.0,427.5 605.6,431.0 609.2,434.4 612.9,437.7 616.5,441.0 620.1,444.2 623.7,447.3 627.4,450.3 631.0,453.2 634.6,456.1 638.3,458.9 641.9,461.6 645.5,464.3 649.1,466.8 652.8,469.3 656.4,471.7 660.0,474.1 663.6,476.3 667.2,478.5 670.9,480.6 674.5,482.7 678.1,484.6 681.8,486.5 685.4,488.4 689.0,490.2 692.6,491.9 696.2,493.5 699.9,495.1 703.5,496.6 707.1,498.0 710.8,499.4 714.4,500.7 718.0,502.0 721.6,503.2 725.2,504.4 728.9,505.5 732.5,506.6 736.1,507.6 739.8,508.6 743.4,509.5 747.0,510.4 750.6,511.2 754.3,512.0 757.9,512.8 761.5,513.5 765.1,514.2 768.8,514.9 772.4,515.5 776.0,516.1 779.6,516.6 783.2,517.1 786.9,517.6 790.5,518.1 794.1,518.5 797.7,519.0 801.4,519.4 805.0,519.7 808.6,520.1 812.2,520.4 815.9,520.7 819.5,521.0 823.1,521.3 826.8,521.5 830.4,521.8 834.0,522.0 837.6,522.2 841.3,522.4 844.9,522.6 848.5,522.8 852.1,522.9 855.8,523.1 859.4,523.2 863.0,523.4 866.6,523.5 870.2,523.6 873.9,523.7 877.5,523.8 881.1,523.9 884.7,524.0 888.4,524.1 892.0,524.1 895.6,524.2 899.3,524.3 902.9,524.3 906.5,524.4 910.1,524.4 913.8,524.5 917.4,524.5 921.0,524.6 924.6,524.6 928.2,524.6 931.9,524.7 935.5,524.7 939.1,524.7 942.8,524.7 946.4,524.8 950.0,524.8" fill="none" stroke="#4E79A7" stroke-width="3" opacity="1"/><text x="375.9" y="105.0" font-size="12" text-anchor="middle" fill="#4E79A7" font-weight="bold">P0 mean 151,888</text><rect x="80.0" y="510.1" width="27.2" height="14.9" fill="#0B8F55" stroke="none" stroke-width="1" opacity="0.22"/><rect x="107.2" y="483.4" width="27.2" height="41.6" fill="#0B8F55" stroke="none" stroke-width="1" opacity="0.22"/><rect x="134.4" y="412.0" width="27.2" height="113.0" fill="#0B8F55" stroke="none" stroke-width="1" opacity="0.22"/><rect x="161.6" y="382.3" width="27.2" height="142.7" fill="#0B8F55" stroke="none" stroke-width="1" opacity="0.22"/><rect x="188.8" y="352.5" width="27.2" height="172.5" fill="#0B8F55" stroke="none" stroke-width="1" opacity="0.22"/><rect x="215.9" y="299.0" width="27.2" height="226.0" fill="#0B8F55" stroke="none" stroke-width="1" opacity="0.22"/><rect x="243.1" y="290.1" width="27.2" height="234.9" fill="#0B8F55" stroke="none" stroke-width="1" opacity="0.22"/><rect x="270.3" y="227.7" width="27.2" height="297.3" fill="#0B8F55" stroke="none" stroke-width="1" opacity="0.22"/><rect x="297.5" y="171.2" width="27.2" height="353.8" fill="#0B8F55" stroke="none" stroke-width="1" opacity="0.22"/><rect x="324.7" y="153.3" width="27.2" height="371.7" fill="#0B8F55" stroke="none" stroke-width="1" opacity="0.22"/><rect x="351.9" y="174.1" width="27.2" height="350.9" fill="#0B8F55" stroke="none" stroke-width="1" opacity="0.22"/><rect x="379.1" y="224.7" width="27.2" height="300.3" fill="#0B8F55" stroke="none" stroke-width="1" opacity="0.22"/><rect x="406.2" y="242.5" width="27.2" height="282.5" fill="#0B8F55" stroke="none" stroke-width="1" opacity="0.22"/><rect x="433.4" y="313.9" width="27.2" height="211.1" fill="#0B8F55" stroke="none" stroke-width="1" opacity="0.22"/><rect x="460.6" y="352.5" width="27.2" height="172.5" fill="#0B8F55" stroke="none" stroke-width="1" opacity="0.22"/><rect x="487.8" y="412.0" width="27.2" height="113.0" fill="#0B8F55" stroke="none" stroke-width="1" opacity="0.22"/><rect x="515.0" y="423.9" width="27.2" height="101.1" fill="#0B8F55" stroke="none" stroke-width="1" opacity="0.22"/><rect x="542.2" y="459.6" width="27.2" height="65.4" fill="#0B8F55" stroke="none" stroke-width="1" opacity="0.22"/><rect x="569.4" y="465.5" width="27.2" height="59.5" fill="#0B8F55" stroke="none" stroke-width="1" opacity="0.22"/><rect x="596.6" y="444.7" width="27.2" height="80.3" fill="#0B8F55" stroke="none" stroke-width="1" opacity="0.22"/><rect x="623.8" y="462.6" width="27.2" height="62.4" fill="#0B8F55" stroke="none" stroke-width="1" opacity="0.22"/><rect x="650.9" y="444.7" width="27.2" height="80.3" fill="#0B8F55" stroke="none" stroke-width="1" opacity="0.22"/><rect x="678.1" y="456.6" width="27.2" height="68.4" fill="#0B8F55" stroke="none" stroke-width="1" opacity="0.22"/><rect x="705.3" y="468.5" width="27.2" height="56.5" fill="#0B8F55" stroke="none" stroke-width="1" opacity="0.22"/><rect x="732.5" y="453.6" width="27.2" height="71.4" fill="#0B8F55" stroke="none" stroke-width="1" opacity="0.22"/><rect x="759.7" y="489.3" width="27.2" height="35.7" fill="#0B8F55" stroke="none" stroke-width="1" opacity="0.22"/><rect x="786.9" y="486.3" width="27.2" height="38.7" fill="#0B8F55" stroke="none" stroke-width="1" opacity="0.22"/><rect x="814.1" y="513.1" width="27.2" height="11.9" fill="#0B8F55" stroke="none" stroke-width="1" opacity="0.22"/><rect x="841.2" y="513.1" width="27.2" height="11.9" fill="#0B8F55" stroke="none" stroke-width="1" opacity="0.22"/><rect x="868.4" y="519.1" width="27.2" height="5.9" fill="#0B8F55" stroke="none" stroke-width="1" opacity="0.22"/><rect x="895.6" y="519.1" width="27.2" height="5.9" fill="#0B8F55" stroke="none" stroke-width="1" opacity="0.22"/><rect x="922.8" y="516.1" width="27.2" height="8.9" fill="#0B8F55" stroke="none" stroke-width="1" opacity="0.22"/><polyline points="80.0,481.0 83.6,479.0 87.2,477.0 90.9,475.0 94.5,472.8 98.1,470.7 101.8,468.4 105.4,466.1 109.0,463.7 112.6,461.3 116.3,458.7 119.9,456.2 123.5,453.5 127.1,450.8 130.7,448.1 134.4,445.2 138.0,442.4 141.6,439.4 145.2,436.4 148.9,433.3 152.5,430.2 156.1,427.0 159.8,423.8 163.4,420.5 167.0,417.1 170.6,413.7 174.2,410.3 177.9,406.8 181.5,403.3 185.1,399.7 188.8,396.1 192.4,392.4 196.0,388.8 199.6,385.0 203.2,381.3 206.9,377.5 210.5,373.7 214.1,369.9 217.8,366.1 221.4,362.3 225.0,358.4 228.6,354.6 232.3,350.7 235.9,346.9 239.5,343.1 243.1,339.2 246.8,335.4 250.4,331.6 254.0,327.9 257.6,324.1 261.2,320.4 264.9,316.8 268.5,313.2 272.1,309.6 275.8,306.1 279.4,302.6 283.0,299.2 286.6,295.9 290.3,292.6 293.9,289.4 297.5,286.3 301.1,283.2 304.8,280.3 308.4,277.4 312.0,274.6 315.6,272.0 319.2,269.4 322.9,266.9 326.5,264.6 330.1,262.4 333.7,260.2 337.4,258.2 341.0,256.3 344.6,254.6 348.3,252.9 351.9,251.4 355.5,250.1 359.1,248.8 362.8,247.7 366.4,246.8 370.0,245.9 373.6,245.2 377.3,244.7 380.9,244.3 384.5,244.0 388.1,243.9 391.8,243.9 395.4,244.1 399.0,244.4 402.6,244.9 406.2,245.5 409.9,246.2 413.5,247.1 417.1,248.1 420.7,249.2 424.4,250.5 428.0,251.9 431.6,253.5 435.3,255.2 438.9,257.0 442.5,258.9 446.1,260.9 449.7,263.1 453.4,265.4 457.0,267.8 460.6,270.3 464.2,272.9 467.9,275.6 471.5,278.4 475.1,281.3 478.8,284.3 482.4,287.3 486.0,290.5 489.6,293.7 493.2,297.0 496.9,300.4 500.5,303.8 504.1,307.3 507.7,310.8 511.4,314.4 515.0,318.0 518.6,321.7 522.2,325.4 525.9,329.2 529.5,332.9 533.1,336.7 536.8,340.5 540.4,344.4 544.0,348.2 547.6,352.1 551.2,355.9 554.9,359.8 558.5,363.6 562.1,367.4 565.8,371.2 569.4,375.0 573.0,378.8 576.6,382.6 580.2,386.3 583.9,390.0 587.5,393.7 591.1,397.3 594.8,400.9 598.4,404.5 602.0,408.0 605.6,411.5 609.2,414.9 612.9,418.3 616.5,421.6 620.1,424.9 623.7,428.1 627.4,431.3 631.0,434.4 634.6,437.4 638.3,440.4 641.9,443.4 645.5,446.2 649.1,449.0 652.8,451.8 656.4,454.4 660.0,457.1 663.6,459.6 667.2,462.1 670.9,464.5 674.5,466.9 678.1,469.2 681.8,471.4 685.4,473.6 689.0,475.7 692.6,477.7 696.2,479.7 699.9,481.6 703.5,483.5 707.1,485.3 710.8,487.1 714.4,488.7 718.0,490.4 721.6,491.9 725.2,493.5 728.9,494.9 732.5,496.3 736.1,497.7 739.8,499.0 743.4,500.2 747.0,501.5 750.6,502.6 754.3,503.7 757.9,504.8 761.5,505.8 765.1,506.8 768.8,507.7 772.4,508.6 776.0,509.5 779.6,510.3 783.2,511.1 786.9,511.9 790.5,512.6 794.1,513.3 797.7,513.9 801.4,514.5 805.0,515.1 808.6,515.7 812.2,516.2 815.9,516.7 819.5,517.2 823.1,517.7 826.8,518.1 830.4,518.5 834.0,518.9 837.6,519.3 841.3,519.6 844.9,520.0 848.5,520.3 852.1,520.6 855.8,520.9 859.4,521.1 863.0,521.4 866.6,521.6 870.2,521.8 873.9,522.0 877.5,522.2 881.1,522.4 884.7,522.6 888.4,522.7 892.0,522.9 895.6,523.0 899.3,523.2 902.9,523.3 906.5,523.4 910.1,523.5 913.8,523.6 917.4,523.7 921.0,523.8 924.6,523.9 928.2,524.0 931.9,524.1 935.5,524.1 939.1,524.2 942.8,524.3 946.4,524.3 950.0,524.4" fill="none" stroke="#0B8F55" stroke-width="3" opacity="1"/><text x="389.3" y="105.0" font-size="12" text-anchor="middle" fill="#0B8F55" font-weight="bold">P8 mean 153,882</text><text x="50.0" y="602.0" font-size="11" text-anchor="start" fill="#697887" font-weight="normal">Figure 2. Transparent bars are empirical densities; curves are descriptive normal fits, not normality claims.</text></svg>