<svg xmlns="http://www.w3.org/2000/svg" width="1000" height="620" viewBox="0 0 1000 620"><rect width="100%" height="100%" fill="white"/><text x="50.0" y="38.0" font-size="22" text-anchor="start" fill="#16222e" font-weight="bold">Scenario-group policy effects relative to P0</text><text x="50.0" y="62.0" font-size="13" text-anchor="start" fill="#536273" font-weight="normal">Cell value = group mean objective difference from balanced baseline</text><text x="226.5" y="92.0" font-size="12" text-anchor="middle" fill="#25313c" font-weight="bold">P0</text><text x="299.5" y="92.0" font-size="12" text-anchor="middle" fill="#25313c" font-weight="bold">P1</text><text x="372.5" y="92.0" font-size="12" text-anchor="middle" fill="#25313c" font-weight="bold">P2</text><text x="445.5" y="92.0" font-size="12" text-anchor="middle" fill="#25313c" font-weight="bold">P3</text><text x="518.5" y="92.0" font-size="12" text-anchor="middle" fill="#25313c" font-weight="bold">P4</text><text x="591.5" y="92.0" font-size="12" text-anchor="middle" fill="#25313c" font-weight="bold">P5</text><text x="664.5" y="92.0" font-size="12" text-anchor="middle" fill="#25313c" font-weight="bold">P6</text><text x="737.5" y="92.0" font-size="12" text-anchor="middle" fill="#25313c" font-weight="bold">P7</text><text x="810.5" y="92.0" font-size="12" text-anchor="middle" fill="#25313c" font-weight="bold">P8</text><text x="883.5" y="92.0" font-size="12" text-anchor="middle" fill="#25313c" font-weight="bold">P9</text><text x="178.0" y="139.0" font-size="11" text-anchor="end" fill="#25313c" font-weight="bold">BASE</text><rect x="190.0" y="105.0" width="71.0" height="53.0" fill="#f5f5f5" stroke="white" stroke-width="1" opacity="1"/><text x="226.5" y="137.0" font-size="10" text-anchor="middle" fill="#25313c" font-weight="normal">+0.0k</text><rect x="263.0" y="105.0" width="71.0" height="53.0" fill="#eff3f1" stroke="white" stroke-width="1" opacity="1"/><text x="299.5" y="137.0" font-size="10" text-anchor="middle" fill="#25313c" font-weight="normal">+1.4k</text><rect x="336.0" y="105.0" width="71.0" height="53.0" fill="#eef2f0" stroke="white" stroke-width="1" opacity="1"/><text x="372.5" y="137.0" font-size="10" text-anchor="middle" fill="#25313c" font-weight="normal">+1.8k</text><rect x="409.0" y="105.0" width="71.0" height="53.0" fill="#eef2f0" stroke="white" stroke-width="1" opacity="1"/><text x="445.5" y="137.0" font-size="10" text-anchor="middle" fill="#25313c" font-weight="normal">+1.8k</text><rect x="482.0" y="105.0" width="71.0" height="53.0" fill="#e29696" stroke="white" stroke-width="1" opacity="1"/><text x="518.5" y="137.0" font-size="10" text-anchor="middle" fill="#25313c" font-weight="normal">-30.1k</text><rect x="555.0" y="105.0" width="71.0" height="53.0" fill="#edf1ef" stroke="white" stroke-width="1" opacity="1"/><text x="591.5" y="137.0" font-size="10" text-anchor="middle" fill="#25313c" font-weight="normal">+2.0k</text><rect x="628.0" y="105.0" width="71.0" height="53.0" fill="#f1f3f2" stroke="white" stroke-width="1" opacity="1"/><text x="664.5" y="137.0" font-size="10" text-anchor="middle" fill="#25313c" font-weight="normal">+1.0k</text><rect x="701.0" y="105.0" width="71.0" height="53.0" fill="#eecfcf" stroke="white" stroke-width="1" opacity="1"/><text x="737.5" y="137.0" font-size="10" text-anchor="middle" fill="#25313c" font-weight="normal">-12.2k</text><rect x="774.0" y="105.0" width="71.0" height="53.0" fill="#ebf0ee" stroke="white" stroke-width="1" opacity="1"/><text x="810.5" y="137.0" font-size="10" text-anchor="middle" fill="#25313c" font-weight="normal">+2.5k</text><rect x="847.0" y="105.0" width="71.0" height="53.0" fill="#d96666" stroke="white" stroke-width="1" opacity="1"/><text x="883.5" y="137.0" font-size="10" text-anchor="middle" fill="white" font-weight="normal">-45.2k</text><text x="178.0" y="194.0" font-size="11" text-anchor="end" fill="#25313c" font-weight="bold">HIGH_WIN</text><rect x="190.0" y="160.0" width="71.0" height="53.0" fill="#f5f5f5" stroke="white" stroke-width="1" opacity="1"/><text x="226.5" y="192.0" font-size="10" text-anchor="middle" fill="#25313c" font-weight="normal">+0.0k</text><rect x="263.0" y="160.0" width="71.0" height="53.0" fill="#e5eeea" stroke="white" stroke-width="1" opacity="1"/><text x="299.5" y="192.0" font-size="10" text-anchor="middle" fill="#25313c" font-weight="normal">+3.8k</text><rect x="336.0" y="160.0" width="71.0" height="53.0" fill="#f3f4f4" stroke="white" stroke-width="1" opacity="1"/><text x="372.5" y="192.0" font-size="10" text-anchor="middle" fill="#25313c" font-weight="normal">+0.4k</text><rect x="409.0" y="160.0" width="71.0" height="53.0" fill="#f4f5f4" stroke="white" stroke-width="1" opacity="1"/><text x="445.5" y="192.0" font-size="10" text-anchor="middle" fill="#25313c" font-weight="normal">+0.2k</text><rect x="482.0" y="160.0" width="71.0" height="53.0" fill="#dc7878" stroke="white" stroke-width="1" opacity="1"/><text x="518.5" y="192.0" font-size="10" text-anchor="middle" fill="white" font-weight="normal">-39.8k</text><rect x="555.0" y="160.0" width="71.0" height="53.0" fill="#e6efeb" stroke="white" stroke-width="1" opacity="1"/><text x="591.5" y="192.0" font-size="10" text-anchor="middle" fill="#25313c" font-weight="normal">+3.6k</text><rect x="628.0" y="160.0" width="71.0" height="53.0" fill="#f4eeee" stroke="white" stroke-width="1" opacity="1"/><text x="664.5" y="192.0" font-size="10" text-anchor="middle" fill="#25313c" font-weight="normal">-2.2k</text><rect x="701.0" y="160.0" width="71.0" height="53.0" fill="#ecc5c5" stroke="white" stroke-width="1" opacity="1"/><text x="737.5" y="192.0" font-size="10" text-anchor="middle" fill="#25313c" font-weight="normal">-15.1k</text><rect x="774.0" y="160.0" width="71.0" height="53.0" fill="#e3ede9" stroke="white" stroke-width="1" opacity="1"/><text x="810.5" y="192.0" font-size="10" text-anchor="middle" fill="#25313c" font-weight="normal">+4.3k</text><rect x="847.0" y="160.0" width="71.0" height="53.0" fill="#d24242" stroke="white" stroke-width="1" opacity="1"/><text x="883.5" y="192.0" font-size="10" text-anchor="middle" fill="white" font-weight="normal">-56.8k</text><text x="178.0" y="249.0" font-size="11" text-anchor="end" fill="#25313c" font-weight="bold">LOW_WIN</text><rect x="190.0" y="215.0" width="71.0" height="53.0" fill="#f5f5f5" stroke="white" stroke-width="1" opacity="1"/><text x="226.5" y="247.0" font-size="10" text-anchor="middle" fill="#25313c" font-weight="normal">+0.0k</text><rect x="263.0" y="215.0" width="71.0" height="53.0" fill="#f5f3f3" stroke="white" stroke-width="1" opacity="1"/><text x="299.5" y="247.0" font-size="10" text-anchor="middle" fill="#25313c" font-weight="normal">-0.7k</text><rect x="336.0" y="215.0" width="71.0" height="53.0" fill="#f4f1f1" stroke="white" stroke-width="1" opacity="1"/><text x="372.5" y="247.0" font-size="10" text-anchor="middle" fill="#25313c" font-weight="normal">-1.3k</text><rect x="409.0" y="215.0" width="71.0" height="53.0" fill="#f5f3f3" stroke="white" stroke-width="1" opacity="1"/><text x="445.5" y="247.0" font-size="10" text-anchor="middle" fill="#25313c" font-weight="normal">-0.7k</text><rect x="482.0" y="215.0" width="71.0" height="53.0" fill="#e6a8a8" stroke="white" stroke-width="1" opacity="1"/><text x="518.5" y="247.0" font-size="10" text-anchor="middle" fill="#25313c" font-weight="normal">-24.6k</text><rect x="555.0" y="215.0" width="71.0" height="53.0" fill="#f3eaea" stroke="white" stroke-width="1" opacity="1"/><text x="591.5" y="247.0" font-size="10" text-anchor="middle" fill="#25313c" font-weight="normal">-3.4k</text><rect x="628.0" y="215.0" width="71.0" height="53.0" fill="#f4eded" stroke="white" stroke-width="1" opacity="1"/><text x="664.5" y="247.0" font-size="10" text-anchor="middle" fill="#25313c" font-weight="normal">-2.4k</text><rect x="701.0" y="215.0" width="71.0" height="53.0" fill="#f1e1e1" stroke="white" stroke-width="1" opacity="1"/><text x="737.5" y="247.0" font-size="10" text-anchor="middle" fill="#25313c" font-weight="normal">-6.5k</text><rect x="774.0" y="215.0" width="71.0" height="53.0" fill="#f5f4f4" stroke="white" stroke-width="1" opacity="1"/><text x="810.5" y="247.0" font-size="10" text-anchor="middle" fill="#25313c" font-weight="normal">-0.4k</text><rect x="847.0" y="215.0" width="71.0" height="53.0" fill="#dd7a7a" stroke="white" stroke-width="1" opacity="1"/><text x="883.5" y="247.0" font-size="10" text-anchor="middle" fill="white" font-weight="normal">-39.1k</text><text x="178.0" y="304.0" font-size="11" text-anchor="end" fill="#25313c" font-weight="bold">RESOURCE_SHORT</text><rect x="190.0" y="270.0" width="71.0" height="53.0" fill="#f5f5f5" stroke="white" stroke-width="1" opacity="1"/><text x="226.5" y="302.0" font-size="10" text-anchor="middle" fill="#25313c" font-weight="normal">+0.0k</text><rect x="263.0" y="270.0" width="71.0" height="53.0" fill="#eff2f1" stroke="white" stroke-width="1" opacity="1"/><text x="299.5" y="302.0" font-size="10" text-anchor="middle" fill="#25313c" font-weight="normal">+1.6k</text><rect x="336.0" y="270.0" width="71.0" height="53.0" fill="#f0f3f2" stroke="white" stroke-width="1" opacity="1"/><text x="372.5" y="302.0" font-size="10" text-anchor="middle" fill="#25313c" font-weight="normal">+1.1k</text><rect x="409.0" y="270.0" width="71.0" height="53.0" fill="#f0f3f2" stroke="white" stroke-width="1" opacity="1"/><text x="445.5" y="302.0" font-size="10" text-anchor="middle" fill="#25313c" font-weight="normal">+1.1k</text><rect x="482.0" y="270.0" width="71.0" height="53.0" fill="#e39a9a" stroke="white" stroke-width="1" opacity="1"/><text x="518.5" y="302.0" font-size="10" text-anchor="middle" fill="#25313c" font-weight="normal">-29.0k</text><rect x="555.0" y="270.0" width="71.0" height="53.0" fill="#eaf0ee" stroke="white" stroke-width="1" opacity="1"/><text x="591.5" y="302.0" font-size="10" text-anchor="middle" fill="#25313c" font-weight="normal">+2.6k</text><rect x="628.0" y="270.0" width="71.0" height="53.0" fill="#f1f3f2" stroke="white" stroke-width="1" opacity="1"/><text x="664.5" y="302.0" font-size="10" text-anchor="middle" fill="#25313c" font-weight="normal">+1.0k</text><rect x="701.0" y="270.0" width="71.0" height="53.0" fill="#eed4d4" stroke="white" stroke-width="1" opacity="1"/><text x="737.5" y="302.0" font-size="10" text-anchor="middle" fill="#25313c" font-weight="normal">-10.6k</text><rect x="774.0" y="270.0" width="71.0" height="53.0" fill="#e9f0ed" stroke="white" stroke-width="1" opacity="1"/><text x="810.5" y="302.0" font-size="10" text-anchor="middle" fill="#25313c" font-weight="normal">+3.0k</text><rect x="847.0" y="270.0" width="71.0" height="53.0" fill="#dd7878" stroke="white" stroke-width="1" opacity="1"/><text x="883.5" y="302.0" font-size="10" text-anchor="middle" fill="white" font-weight="normal">-39.7k</text><text x="178.0" y="359.0" font-size="11" text-anchor="end" fill="#25313c" font-weight="bold">DELAYED_START</text><rect x="190.0" y="325.0" width="71.0" height="53.0" fill="#f5f5f5" stroke="white" stroke-width="1" opacity="1"/><text x="226.5" y="357.0" font-size="10" text-anchor="middle" fill="#25313c" font-weight="normal">+0.0k</text><rect x="263.0" y="325.0" width="71.0" height="53.0" fill="#f4f5f5" stroke="white" stroke-width="1" opacity="1"/><text x="299.5" y="357.0" font-size="10" text-anchor="middle" fill="#25313c" font-weight="normal">+0.2k</text><rect x="336.0" y="325.0" width="71.0" height="53.0" fill="#f3f4f4" stroke="white" stroke-width="1" opacity="1"/><text x="372.5" y="357.0" font-size="10" text-anchor="middle" fill="#25313c" font-weight="normal">+0.5k</text><rect x="409.0" y="325.0" width="71.0" height="53.0" fill="#f1f3f2" stroke="white" stroke-width="1" opacity="1"/><text x="445.5" y="357.0" font-size="10" text-anchor="middle" fill="#25313c" font-weight="normal">+1.0k</text><rect x="482.0" y="325.0" width="71.0" height="53.0" fill="#e49d9d" stroke="white" stroke-width="1" opacity="1"/><text x="518.5" y="357.0" font-size="10" text-anchor="middle" fill="#25313c" font-weight="normal">-27.9k</text><rect x="555.0" y="325.0" width="71.0" height="53.0" fill="#f3f4f3" stroke="white" stroke-width="1" opacity="1"/><text x="591.5" y="357.0" font-size="10" text-anchor="middle" fill="#25313c" font-weight="normal">+0.5k</text><rect x="628.0" y="325.0" width="71.0" height="53.0" fill="#f5f4f4" stroke="white" stroke-width="1" opacity="1"/><text x="664.5" y="357.0" font-size="10" text-anchor="middle" fill="#25313c" font-weight="normal">-0.2k</text><rect x="701.0" y="325.0" width="71.0" height="53.0" fill="#f2e4e4" stroke="white" stroke-width="1" opacity="1"/><text x="737.5" y="357.0" font-size="10" text-anchor="middle" fill="#25313c" font-weight="normal">-5.4k</text><rect x="774.0" y="325.0" width="71.0" height="53.0" fill="#f0f3f2" stroke="white" stroke-width="1" opacity="1"/><text x="810.5" y="357.0" font-size="10" text-anchor="middle" fill="#25313c" font-weight="normal">+1.2k</text><rect x="847.0" y="325.0" width="71.0" height="53.0" fill="#db7171" stroke="white" stroke-width="1" opacity="1"/><text x="883.5" y="357.0" font-size="10" text-anchor="middle" fill="white" font-weight="normal">-41.8k</text><text x="178.0" y="414.0" font-size="11" text-anchor="end" fill="#25313c" font-weight="bold">COST_PRESSURE</text><rect x="190.0" y="380.0" width="71.0" height="53.0" fill="#f5f5f5" stroke="white" stroke-width="1" opacity="1"/><text x="226.5" y="412.0" font-size="10" text-anchor="middle" fill="#25313c" font-weight="normal">+0.0k</text><rect x="263.0" y="380.0" width="71.0" height="53.0" fill="#eff3f1" stroke="white" stroke-width="1" opacity="1"/><text x="299.5" y="412.0" font-size="10" text-anchor="middle" fill="#25313c" font-weight="normal">+1.3k</text><rect x="336.0" y="380.0" width="71.0" height="53.0" fill="#f5f5f5" stroke="white" stroke-width="1" opacity="1"/><text x="372.5" y="412.0" font-size="10" text-anchor="middle" fill="#25313c" font-weight="normal">-0.0k</text><rect x="409.0" y="380.0" width="71.0" height="53.0" fill="#f1f3f2" stroke="white" stroke-width="1" opacity="1"/><text x="445.5" y="412.0" font-size="10" text-anchor="middle" fill="#25313c" font-weight="normal">+1.0k</text><rect x="482.0" y="380.0" width="71.0" height="53.0" fill="#e39797" stroke="white" stroke-width="1" opacity="1"/><text x="518.5" y="412.0" font-size="10" text-anchor="middle" fill="#25313c" font-weight="normal">-29.9k</text><rect x="555.0" y="380.0" width="71.0" height="53.0" fill="#f1f3f2" stroke="white" stroke-width="1" opacity="1"/><text x="591.5" y="412.0" font-size="10" text-anchor="middle" fill="#25313c" font-weight="normal">+0.9k</text><rect x="628.0" y="380.0" width="71.0" height="53.0" fill="#f5f3f3" stroke="white" stroke-width="1" opacity="1"/><text x="664.5" y="412.0" font-size="10" text-anchor="middle" fill="#25313c" font-weight="normal">-0.7k</text><rect x="701.0" y="380.0" width="71.0" height="53.0" fill="#eed3d3" stroke="white" stroke-width="1" opacity="1"/><text x="737.5" y="412.0" font-size="10" text-anchor="middle" fill="#25313c" font-weight="normal">-10.9k</text><rect x="774.0" y="380.0" width="71.0" height="53.0" fill="#eef2f0" stroke="white" stroke-width="1" opacity="1"/><text x="810.5" y="412.0" font-size="10" text-anchor="middle" fill="#25313c" font-weight="normal">+1.8k</text><rect x="847.0" y="380.0" width="71.0" height="53.0" fill="#da6b6b" stroke="white" stroke-width="1" opacity="1"/><text x="883.5" y="412.0" font-size="10" text-anchor="middle" fill="white" font-weight="normal">-43.9k</text><text x="178.0" y="469.0" font-size="11" text-anchor="end" fill="#25313c" font-weight="bold">INTERNAL_RATIO_STRESS</text><rect x="190.0" y="435.0" width="71.0" height="53.0" fill="#f5f5f5" stroke="white" stroke-width="1" opacity="1"/><text x="226.5" y="467.0" font-size="10" text-anchor="middle" fill="#25313c" font-weight="normal">+0.0k</text><rect x="263.0" y="435.0" width="71.0" height="53.0" fill="#f5f3f3" stroke="white" stroke-width="1" opacity="1"/><text x="299.5" y="467.0" font-size="10" text-anchor="middle" fill="#25313c" font-weight="normal">-0.7k</text><rect x="336.0" y="435.0" width="71.0" height="53.0" fill="#f5f3f3" stroke="white" stroke-width="1" opacity="1"/><text x="372.5" y="467.0" font-size="10" text-anchor="middle" fill="#25313c" font-weight="normal">-0.7k</text><rect x="409.0" y="435.0" width="71.0" height="53.0" fill="#f5f5f5" stroke="white" stroke-width="1" opacity="1"/><text x="445.5" y="467.0" font-size="10" text-anchor="middle" fill="#25313c" font-weight="normal">+0.1k</text><rect x="482.0" y="435.0" width="71.0" height="53.0" fill="#e5a3a3" stroke="white" stroke-width="1" opacity="1"/><text x="518.5" y="467.0" font-size="10" text-anchor="middle" fill="#25313c" font-weight="normal">-26.0k</text><rect x="555.0" y="435.0" width="71.0" height="53.0" fill="#f4f1f1" stroke="white" stroke-width="1" opacity="1"/><text x="591.5" y="467.0" font-size="10" text-anchor="middle" fill="#25313c" font-weight="normal">-1.3k</text><rect x="628.0" y="435.0" width="71.0" height="53.0" fill="#f4f0f0" stroke="white" stroke-width="1" opacity="1"/><text x="664.5" y="467.0" font-size="10" text-anchor="middle" fill="#25313c" font-weight="normal">-1.7k</text><rect x="701.0" y="435.0" width="71.0" height="53.0" fill="#f0dddd" stroke="white" stroke-width="1" opacity="1"/><text x="737.5" y="467.0" font-size="10" text-anchor="middle" fill="#25313c" font-weight="normal">-7.6k</text><rect x="774.0" y="435.0" width="71.0" height="53.0" fill="#eef2f1" stroke="white" stroke-width="1" opacity="1"/><text x="810.5" y="467.0" font-size="10" text-anchor="middle" fill="#25313c" font-weight="normal">+1.6k</text><rect x="847.0" y="435.0" width="71.0" height="53.0" fill="#dd7a7a" stroke="white" stroke-width="1" opacity="1"/><text x="883.5" y="467.0" font-size="10" text-anchor="middle" fill="white" font-weight="normal">-39.0k</text><text x="50.0" y="602.0" font-size="11" text-anchor="start" fill="#697887" font-weight="normal">Figure 3. Green indicates improvement over P0; red indicates deterioration.</text></svg>