<svg xmlns="http://www.w3.org/2000/svg" width="1000" height="620" viewBox="0 0 1000 620"><rect width="100%" height="100%" fill="white"/><text x="50.0" y="38.0" font-size="22" text-anchor="start" fill="#16222e" font-weight="bold">Risk-return policy map</text><text x="50.0" y="62.0" font-size="13" text-anchor="start" fill="#536273" font-weight="normal">Bubble size represents mean objective; upper-left is the desirable direction</text><rect x="90.0" y="95.0" width="860.0" height="395.0" fill="#fbfcfd" stroke="#d8dee6" stroke-width="1" opacity="1"/><line x1="90.0" y1="440.3" x2="950.0" y2="440.3" stroke="#e7ebef" stroke-width="1"/><text x="80.0" y="444.3" font-size="11" text-anchor="end" fill="#25313c" font-weight="normal">80k</text><line x1="90.0" y1="367.5" x2="950.0" y2="367.5" stroke="#e7ebef" stroke-width="1"/><text x="80.0" y="371.5" font-size="11" text-anchor="end" fill="#25313c" font-weight="normal">90k</text><line x1="90.0" y1="294.7" x2="950.0" y2="294.7" stroke="#e7ebef" stroke-width="1"/><text x="80.0" y="298.7" font-size="11" text-anchor="end" fill="#25313c" font-weight="normal">100k</text><line x1="90.0" y1="221.8" x2="950.0" y2="221.8" stroke="#e7ebef" stroke-width="1"/><text x="80.0" y="225.8" font-size="11" text-anchor="end" fill="#25313c" font-weight="normal">110k</text><line x1="90.0" y1="149.0" x2="950.0" y2="149.0" stroke="#e7ebef" stroke-width="1"/><text x="80.0" y="153.0" font-size="11" text-anchor="end" fill="#25313c" font-weight="normal">120k</text><line x1="116.6" y1="95.0" x2="116.6" y2="490.0" stroke="#eef1f4" stroke-width="1"/><text x="116.6" y="512.0" font-size="11" text-anchor="middle" fill="#25313c" font-weight="normal">16k</text><line x1="288.5" y1="95.0" x2="288.5" y2="490.0" stroke="#eef1f4" stroke-width="1"/><text x="288.5" y="512.0" font-size="11" text-anchor="middle" fill="#25313c" font-weight="normal">18k</text><line x1="460.4" y1="95.0" x2="460.4" y2="490.0" stroke="#eef1f4" stroke-width="1"/><text x="460.4" y="512.0" font-size="11" text-anchor="middle" fill="#25313c" font-weight="normal">20k</text><line x1="632.3" y1="95.0" x2="632.3" y2="490.0" stroke="#eef1f4" stroke-width="1"/><text x="632.3" y="512.0" font-size="11" text-anchor="middle" fill="#25313c" font-weight="normal">22k</text><line x1="804.2" y1="95.0" x2="804.2" y2="490.0" stroke="#eef1f4" stroke-width="1"/><text x="804.2" y="512.0" font-size="11" text-anchor="middle" fill="#25313c" font-weight="normal">24k</text><circle cx="667.1" cy="139.2" r="13.8" fill="#4E79A7" stroke="white" stroke-width="1" opacity="0.85"/><line x1="667.1" y1="139.2" x2="681.1" y2="122.2" stroke="#4E79A7" stroke-width="1"/><text x="683.1" y="122.2" font-size="11" text-anchor="start" fill="#4E79A7" font-weight="bold">P0</text><circle cx="796.7" cy="144.2" r="13.9" fill="#F28E2B" stroke="white" stroke-width="1" opacity="0.85"/><line x1="796.7" y1="144.2" x2="810.7" y2="166.2" stroke="#F28E2B" stroke-width="1"/><text x="812.7" y="166.2" font-size="11" text-anchor="start" fill="#F28E2B" font-weight="bold">P1</text><circle cx="713.1" cy="146.0" r="13.8" fill="#E15759" stroke="white" stroke-width="1" opacity="0.85"/><line x1="713.1" y1="146.0" x2="727.1" y2="122.0" stroke="#E15759" stroke-width="1"/><text x="729.1" y="122.0" font-size="11" text-anchor="start" fill="#E15759" font-weight="bold">P2</text><circle cx="688.2" cy="141.5" r="13.8" fill="#76B7B2" stroke="white" stroke-width="1" opacity="0.85"/><line x1="688.2" y1="141.5" x2="702.2" y2="169.5" stroke="#76B7B2" stroke-width="1"/><text x="704.2" y="169.5" font-size="11" text-anchor="start" fill="#76B7B2" font-weight="bold">P3</text><circle cx="271.7" cy="328.7" r="10.5" fill="#59A14F" stroke="white" stroke-width="1" opacity="0.85"/><line x1="271.7" y1="328.7" x2="285.7" y2="316.7" stroke="#59A14F" stroke-width="1"/><text x="287.7" y="316.7" font-size="11" text-anchor="start" fill="#59A14F" font-weight="bold">P4</text><circle cx="844.8" cy="162.0" r="13.8" fill="#EDC948" stroke="white" stroke-width="1" opacity="0.85"/><line x1="844.8" y1="162.0" x2="858.8" y2="187.0" stroke="#EDC948" stroke-width="1"/><text x="860.8" y="187.0" font-size="11" text-anchor="start" fill="#EDC948" font-weight="bold">P5</text><circle cx="690.8" cy="160.8" r="13.7" fill="#B07AA1" stroke="white" stroke-width="1" opacity="0.85"/><line x1="690.8" y1="160.8" x2="674.8" y2="180.8" stroke="#B07AA1" stroke-width="1"/><text x="672.8" y="180.8" font-size="11" text-anchor="end" fill="#B07AA1" font-weight="bold">P6</text><circle cx="434.3" cy="185.3" r="12.7" fill="#FF9DA7" stroke="white" stroke-width="1" opacity="0.85"/><line x1="434.3" y1="185.3" x2="448.3" y2="203.3" stroke="#FF9DA7" stroke-width="1"/><text x="450.3" y="203.3" font-size="11" text-anchor="start" fill="#FF9DA7" font-weight="bold">P7</text><circle cx="789.3" cy="143.9" r="14.0" fill="#0B8F55" stroke="white" stroke-width="1" opacity="0.85"/><line x1="789.3" y1="143.9" x2="771.3" y2="124.9" stroke="#0B8F55" stroke-width="1"/><text x="769.3" y="124.9" font-size="11" text-anchor="end" fill="#0B8F55" font-weight="bold">P8</text><circle cx="239.9" cy="443.7" r="8.9" fill="#9C755F" stroke="white" stroke-width="1" opacity="0.85"/><line x1="239.9" y1="443.7" x2="253.9" y2="461.7" stroke="#9C755F" stroke-width="1"/><text x="255.9" y="461.7" font-size="11" text-anchor="start" fill="#9C755F" font-weight="bold">P9</text><text x="520.0" y="532.0" font-size="12" text-anchor="middle" fill="#25313c" font-weight="normal">X: Objective standard deviation (KRW million; lower is safer)</text><text x="22.0" y="292.5" font-size="12" text-anchor="middle" fill="#25313c" font-weight="normal" transform="rotate(-90 22 292.5)">Y: Worst 10% mean (KRW million; higher is better)</text><text x="520.0" y="555.0" font-size="11" text-anchor="middle" fill="#25313c" font-weight="normal">Bubble area: mean objective</text><text x="50.0" y="602.0" font-size="11" text-anchor="start" fill="#697887" font-weight="normal">Figure 4. No single point dominates every criterion; policy choice depends on the loss function.</text></svg>