<svg xmlns="http://www.w3.org/2000/svg" width="1000" height="620" viewBox="0 0 1000 620"><rect width="100%" height="100%" fill="white"/><text x="50.0" y="38.0" font-size="22" text-anchor="start" fill="#16222e" font-weight="bold">Paired policy effects versus P0</text><text x="50.0" y="62.0" font-size="13" text-anchor="start" fill="#536273" font-weight="normal">Mean difference and scenario-clustered 95% confidence interval</text><rect x="170.0" y="90.0" width="780.0" height="435.0" fill="#fbfcfd" stroke="#d8dee6" stroke-width="1" opacity="1"/><line x1="170.0" y1="90.0" x2="170.0" y2="525.0" stroke="#eef1f4" stroke-width="1"/><text x="170.0" y="547.0" font-size="11" text-anchor="middle" fill="#25313c" font-weight="normal">-50k</text><line x1="248.0" y1="90.0" x2="248.0" y2="525.0" stroke="#eef1f4" stroke-width="1"/><text x="248.0" y="547.0" font-size="11" text-anchor="middle" fill="#25313c" font-weight="normal">-40k</text><line x1="326.0" y1="90.0" x2="326.0" y2="525.0" stroke="#eef1f4" stroke-width="1"/><text x="326.0" y="547.0" font-size="11" text-anchor="middle" fill="#25313c" font-weight="normal">-30k</text><line x1="404.0" y1="90.0" x2="404.0" y2="525.0" stroke="#eef1f4" stroke-width="1"/><text x="404.0" y="547.0" font-size="11" text-anchor="middle" fill="#25313c" font-weight="normal">-20k</text><line x1="482.0" y1="90.0" x2="482.0" y2="525.0" stroke="#eef1f4" stroke-width="1"/><text x="482.0" y="547.0" font-size="11" text-anchor="middle" fill="#25313c" font-weight="normal">-10k</text><line x1="560.0" y1="90.0" x2="560.0" y2="525.0" stroke="#eef1f4" stroke-width="1"/><text x="560.0" y="547.0" font-size="11" text-anchor="middle" fill="#25313c" font-weight="normal">+0k</text><line x1="638.0" y1="90.0" x2="638.0" y2="525.0" stroke="#eef1f4" stroke-width="1"/><text x="638.0" y="547.0" font-size="11" text-anchor="middle" fill="#25313c" font-weight="normal">+10k</text><line x1="716.0" y1="90.0" x2="716.0" y2="525.0" stroke="#eef1f4" stroke-width="1"/><text x="716.0" y="547.0" font-size="11" text-anchor="middle" fill="#25313c" font-weight="normal">+20k</text><line x1="794.0" y1="90.0" x2="794.0" y2="525.0" stroke="#eef1f4" stroke-width="1"/><text x="794.0" y="547.0" font-size="11" text-anchor="middle" fill="#25313c" font-weight="normal">+30k</text><line x1="872.0" y1="90.0" x2="872.0" y2="525.0" stroke="#eef1f4" stroke-width="1"/><text x="872.0" y="547.0" font-size="11" text-anchor="middle" fill="#25313c" font-weight="normal">+40k</text><line x1="950.0" y1="90.0" x2="950.0" y2="525.0" stroke="#eef1f4" stroke-width="1"/><text x="950.0" y="547.0" font-size="11" text-anchor="middle" fill="#25313c" font-weight="normal">+50k</text><line x1="560.0" y1="90.0" x2="560.0" y2="525.0" stroke="#25313c" stroke-width="1.5"/><text x="150.0" y="119.0" font-size="12" text-anchor="end" fill="#F28E2B" font-weight="bold">P1</text><line x1="563.1" y1="115.0" x2="572.3" y2="115.0" stroke="#F28E2B" stroke-width="3"/><line x1="563.1" y1="109.0" x2="563.1" y2="121.0" stroke="#F28E2B" stroke-width="2"/><line x1="572.3" y1="109.0" x2="572.3" y2="121.0" stroke="#F28E2B" stroke-width="2"/><circle cx="567.7" cy="115.0" r="6.0" fill="#F28E2B" stroke="white" stroke-width="1" opacity="1"/><text x="150.0" y="164.0" font-size="12" text-anchor="end" fill="#E15759" font-weight="bold">P2</text><line x1="558.2" y1="160.0" x2="565.7" y2="160.0" stroke="#E15759" stroke-width="3"/><line x1="558.2" y1="154.0" x2="558.2" y2="166.0" stroke="#E15759" stroke-width="2"/><line x1="565.7" y1="154.0" x2="565.7" y2="166.0" stroke="#E15759" stroke-width="2"/><circle cx="561.9" cy="160.0" r="6.0" fill="#E15759" stroke="white" stroke-width="1" opacity="1"/><text x="150.0" y="209.0" font-size="12" text-anchor="end" fill="#76B7B2" font-weight="bold">P3</text><line x1="560.7" y1="205.0" x2="569.5" y2="205.0" stroke="#76B7B2" stroke-width="3"/><line x1="560.7" y1="199.0" x2="560.7" y2="211.0" stroke="#76B7B2" stroke-width="2"/><line x1="569.5" y1="199.0" x2="569.5" y2="211.0" stroke="#76B7B2" stroke-width="2"/><circle cx="565.1" cy="205.0" r="6.0" fill="#76B7B2" stroke="white" stroke-width="1" opacity="1"/><text x="150.0" y="254.0" font-size="12" text-anchor="end" fill="#59A14F" font-weight="bold">P4</text><line x1="317.3" y1="250.0" x2="340.8" y2="250.0" stroke="#59A14F" stroke-width="3"/><line x1="317.3" y1="244.0" x2="317.3" y2="256.0" stroke="#59A14F" stroke-width="2"/><line x1="340.8" y1="244.0" x2="340.8" y2="256.0" stroke="#59A14F" stroke-width="2"/><circle cx="329.1" cy="250.0" r="6.0" fill="#59A14F" stroke="white" stroke-width="1" opacity="1"/><text x="150.0" y="299.0" font-size="12" text-anchor="end" fill="#EDC948" font-weight="bold">P5</text><line x1="559.4" y1="295.0" x2="571.5" y2="295.0" stroke="#EDC948" stroke-width="3"/><line x1="559.4" y1="289.0" x2="559.4" y2="301.0" stroke="#EDC948" stroke-width="2"/><line x1="571.5" y1="289.0" x2="571.5" y2="301.0" stroke="#EDC948" stroke-width="2"/><circle cx="565.4" cy="295.0" r="6.0" fill="#EDC948" stroke="white" stroke-width="1" opacity="1"/><text x="150.0" y="344.0" font-size="12" text-anchor="end" fill="#B07AA1" font-weight="bold">P6</text><line x1="548.3" y1="340.0" x2="560.0" y2="340.0" stroke="#B07AA1" stroke-width="3"/><line x1="548.3" y1="334.0" x2="548.3" y2="346.0" stroke="#B07AA1" stroke-width="2"/><line x1="560.0" y1="334.0" x2="560.0" y2="346.0" stroke="#B07AA1" stroke-width="2"/><circle cx="554.2" cy="340.0" r="6.0" fill="#B07AA1" stroke="white" stroke-width="1" opacity="1"/><text x="150.0" y="389.0" font-size="12" text-anchor="end" fill="#FF9DA7" font-weight="bold">P7</text><line x1="475.4" y1="385.0" x2="492.4" y2="385.0" stroke="#FF9DA7" stroke-width="3"/><line x1="475.4" y1="379.0" x2="475.4" y2="391.0" stroke="#FF9DA7" stroke-width="2"/><line x1="492.4" y1="379.0" x2="492.4" y2="391.0" stroke="#FF9DA7" stroke-width="2"/><circle cx="483.9" cy="385.0" r="6.0" fill="#FF9DA7" stroke="white" stroke-width="1" opacity="1"/><text x="150.0" y="434.0" font-size="12" text-anchor="end" fill="#0B8F55" font-weight="bold">P8</text><line x1="571.4" y1="430.0" x2="579.7" y2="430.0" stroke="#0B8F55" stroke-width="3"/><line x1="571.4" y1="424.0" x2="571.4" y2="436.0" stroke="#0B8F55" stroke-width="2"/><line x1="579.7" y1="424.0" x2="579.7" y2="436.0" stroke="#0B8F55" stroke-width="2"/><circle cx="575.5" cy="430.0" r="6.0" fill="#0B8F55" stroke="white" stroke-width="1" opacity="1"/><text x="150.0" y="479.0" font-size="12" text-anchor="end" fill="#9C755F" font-weight="bold">P9</text><line x1="205.5" y1="475.0" x2="233.5" y2="475.0" stroke="#9C755F" stroke-width="3"/><line x1="205.5" y1="469.0" x2="205.5" y2="481.0" stroke="#9C755F" stroke-width="2"/><line x1="233.5" y1="469.0" x2="233.5" y2="481.0" stroke="#9C755F" stroke-width="2"/><circle cx="219.5" cy="475.0" r="6.0" fill="#9C755F" stroke="white" stroke-width="1" opacity="1"/><text x="50.0" y="602.0" font-size="11" text-anchor="start" fill="#697887" font-weight="normal">Figure 5. Intervals crossing zero do not establish a directional difference at the 5% level.</text></svg>