<svg xmlns="http://www.w3.org/2000/svg" width="1000" height="620" viewBox="0 0 1000 620"><rect width="100%" height="100%" fill="white"/><text x="50.0" y="38.0" font-size="22" text-anchor="start" fill="#16222e" font-weight="bold">Project attribute portfolio map</text><text x="50.0" y="62.0" font-size="13" text-anchor="start" fill="#536273" font-weight="normal">Expected margin value versus resource burden; external bubble size reflects estimated win probability</text><rect x="90.0" y="90.0" width="860.0" height="430.0" fill="#fbfcfd" stroke="#d8dee6" stroke-width="1" opacity="1"/><line x1="90.0" y1="520.0" x2="950.0" y2="520.0" stroke="#e7ebef" stroke-width="1"/><text x="80.0" y="524.0" font-size="11" text-anchor="end" fill="#25313c" font-weight="normal">0</text><line x1="90.0" y1="466.8" x2="950.0" y2="466.8" stroke="#e7ebef" stroke-width="1"/><text x="80.0" y="470.8" font-size="11" text-anchor="end" fill="#25313c" font-weight="normal">200</text><line x1="90.0" y1="413.5" x2="950.0" y2="413.5" stroke="#e7ebef" stroke-width="1"/><text x="80.0" y="417.5" font-size="11" text-anchor="end" fill="#25313c" font-weight="normal">400</text><line x1="90.0" y1="360.3" x2="950.0" y2="360.3" stroke="#e7ebef" stroke-width="1"/><text x="80.0" y="364.3" font-size="11" text-anchor="end" fill="#25313c" font-weight="normal">600</text><line x1="90.0" y1="307.0" x2="950.0" y2="307.0" stroke="#e7ebef" stroke-width="1"/><text x="80.0" y="311.0" font-size="11" text-anchor="end" fill="#25313c" font-weight="normal">800</text><line x1="90.0" y1="253.8" x2="950.0" y2="253.8" stroke="#e7ebef" stroke-width="1"/><text x="80.0" y="257.8" font-size="11" text-anchor="end" fill="#25313c" font-weight="normal">1000</text><line x1="90.0" y1="90.0" x2="90.0" y2="520.0" stroke="#eef1f4" stroke-width="1"/><text x="90.0" y="542.0" font-size="11" text-anchor="middle" fill="#25313c" font-weight="normal">0.0</text><line x1="262.0" y1="90.0" x2="262.0" y2="520.0" stroke="#eef1f4" stroke-width="1"/><text x="262.0" y="542.0" font-size="11" text-anchor="middle" fill="#25313c" font-weight="normal">0.2</text><line x1="434.0" y1="90.0" x2="434.0" y2="520.0" stroke="#eef1f4" stroke-width="1"/><text x="434.0" y="542.0" font-size="11" text-anchor="middle" fill="#25313c" font-weight="normal">0.4</text><line x1="606.0" y1="90.0" x2="606.0" y2="520.0" stroke="#eef1f4" stroke-width="1"/><text x="606.0" y="542.0" font-size="11" text-anchor="middle" fill="#25313c" font-weight="normal">0.6</text><line x1="778.0" y1="90.0" x2="778.0" y2="520.0" stroke="#eef1f4" stroke-width="1"/><text x="778.0" y="542.0" font-size="11" text-anchor="middle" fill="#25313c" font-weight="normal">0.8</text><line x1="950.0" y1="90.0" x2="950.0" y2="520.0" stroke="#eef1f4" stroke-width="1"/><text x="950.0" y="542.0" font-size="11" text-anchor="middle" fill="#25313c" font-weight="normal">1.0</text><circle cx="377.2" cy="383.6" r="13.0" fill="#4E79A7" stroke="white" stroke-width="1" opacity="0.55"/><circle cx="556.1" cy="471.8" r="13.0" fill="#4E79A7" stroke="white" stroke-width="1" opacity="0.55"/><circle cx="814.1" cy="488.0" r="13.0" fill="#4E79A7" stroke="white" stroke-width="1" opacity="0.55"/><circle cx="459.8" cy="452.2" r="13.0" fill="#4E79A7" stroke="white" stroke-width="1" opacity="0.55"/><circle cx="535.5" cy="438.3" r="13.0" fill="#4E79A7" stroke="white" stroke-width="1" opacity="0.55"/><circle cx="583.6" cy="461.2" r="13.0" fill="#4E79A7" stroke="white" stroke-width="1" opacity="0.55"/><circle cx="417.7" cy="471.2" r="13.0" fill="#4E79A7" stroke="white" stroke-width="1" opacity="0.55"/><circle cx="760.8" cy="492.5" r="13.0" fill="#4E79A7" stroke="white" stroke-width="1" opacity="0.55"/><circle cx="532.9" cy="427.5" r="13.0" fill="#4E79A7" stroke="white" stroke-width="1" opacity="0.55"/><circle cx="636.1" cy="463.3" r="13.0" fill="#4E79A7" stroke="white" stroke-width="1" opacity="0.55"/><circle cx="343.7" cy="429.0" r="13.0" fill="#4E79A7" stroke="white" stroke-width="1" opacity="0.55"/><circle cx="346.3" cy="421.4" r="13.0" fill="#4E79A7" stroke="white" stroke-width="1" opacity="0.55"/><circle cx="534.6" cy="484.0" r="13.0" fill="#4E79A7" stroke="white" stroke-width="1" opacity="0.55"/><circle cx="436.6" cy="483.6" r="13.0" fill="#4E79A7" stroke="white" stroke-width="1" opacity="0.55"/><circle cx="798.6" cy="472.0" r="13.0" fill="#4E79A7" stroke="white" stroke-width="1" opacity="0.55"/><circle cx="711.8" cy="457.4" r="13.0" fill="#4E79A7" stroke="white" stroke-width="1" opacity="0.55"/><circle cx="459.8" cy="488.1" r="13.0" fill="#4E79A7" stroke="white" stroke-width="1" opacity="0.55"/><circle cx="323.9" cy="406.2" r="13.0" fill="#4E79A7" stroke="white" stroke-width="1" opacity="0.55"/><circle cx="636.1" cy="481.6" r="13.0" fill="#4E79A7" stroke="white" stroke-width="1" opacity="0.55"/><circle cx="741.0" cy="439.3" r="13.0" fill="#4E79A7" stroke="white" stroke-width="1" opacity="0.55"/><circle cx="633.5" cy="452.2" r="13.0" fill="#4E79A7" stroke="white" stroke-width="1" opacity="0.55"/><circle cx="332.5" cy="487.6" r="13.0" fill="#4E79A7" stroke="white" stroke-width="1" opacity="0.55"/><circle cx="577.6" cy="476.0" r="13.0" fill="#4E79A7" stroke="white" stroke-width="1" opacity="0.55"/><circle cx="459.8" cy="473.2" r="13.0" fill="#4E79A7" stroke="white" stroke-width="1" opacity="0.55"/><circle cx="661.0" cy="487.1" r="13.0" fill="#4E79A7" stroke="white" stroke-width="1" opacity="0.55"/><circle cx="772.0" cy="457.9" r="13.0" fill="#4E79A7" stroke="white" stroke-width="1" opacity="0.55"/><circle cx="679.1" cy="418.3" r="13.0" fill="#4E79A7" stroke="white" stroke-width="1" opacity="0.55"/><circle cx="481.3" cy="480.6" r="13.0" fill="#4E79A7" stroke="white" stroke-width="1" opacity="0.55"/><circle cx="606.0" cy="433.3" r="13.0" fill="#4E79A7" stroke="white" stroke-width="1" opacity="0.55"/><circle cx="817.6" cy="402.0" r="13.0" fill="#4E79A7" stroke="white" stroke-width="1" opacity="0.55"/><circle cx="470.1" cy="405.9" r="13.0" fill="#4E79A7" stroke="white" stroke-width="1" opacity="0.55"/><circle cx="399.6" cy="464.2" r="13.0" fill="#4E79A7" stroke="white" stroke-width="1" opacity="0.55"/><circle cx="547.5" cy="444.7" r="13.0" fill="#4E79A7" stroke="white" stroke-width="1" opacity="0.55"/><circle cx="766.8" cy="419.6" r="13.0" fill="#4E79A7" stroke="white" stroke-width="1" opacity="0.55"/><circle cx="482.2" cy="438.6" r="13.0" fill="#4E79A7" stroke="white" stroke-width="1" opacity="0.55"/><circle cx="784.0" cy="462.4" r="13.0" fill="#4E79A7" stroke="white" stroke-width="1" opacity="0.55"/><circle cx="716.9" cy="398.7" r="13.0" fill="#4E79A7" stroke="white" stroke-width="1" opacity="0.55"/><circle cx="782.3" cy="445.7" r="13.0" fill="#4E79A7" stroke="white" stroke-width="1" opacity="0.55"/><circle cx="392.7" cy="442.6" r="13.0" fill="#4E79A7" stroke="white" stroke-width="1" opacity="0.55"/><circle cx="555.3" cy="478.5" r="13.0" fill="#4E79A7" stroke="white" stroke-width="1" opacity="0.55"/><circle cx="612.0" cy="479.8" r="13.0" fill="#4E79A7" stroke="white" stroke-width="1" opacity="0.55"/><circle cx="661.9" cy="456.6" r="13.0" fill="#4E79A7" stroke="white" stroke-width="1" opacity="0.55"/><circle cx="436.6" cy="359.2" r="13.0" fill="#4E79A7" stroke="white" stroke-width="1" opacity="0.55"/><circle cx="344.6" cy="390.3" r="13.0" fill="#4E79A7" stroke="white" stroke-width="1" opacity="0.55"/><circle cx="429.7" cy="394.8" r="13.0" fill="#4E79A7" stroke="white" stroke-width="1" opacity="0.55"/><circle cx="391.9" cy="462.8" r="13.0" fill="#4E79A7" stroke="white" stroke-width="1" opacity="0.55"/><circle cx="546.7" cy="441.1" r="13.0" fill="#4E79A7" stroke="white" stroke-width="1" opacity="0.55"/><circle cx="796.9" cy="450.8" r="13.0" fill="#4E79A7" stroke="white" stroke-width="1" opacity="0.55"/><circle cx="712.6" cy="477.1" r="13.0" fill="#4E79A7" stroke="white" stroke-width="1" opacity="0.55"/><circle cx="804.7" cy="442.2" r="13.0" fill="#4E79A7" stroke="white" stroke-width="1" opacity="0.55"/><circle cx="736.7" cy="408.7" r="13.0" fill="#4E79A7" stroke="white" stroke-width="1" opacity="0.55"/><circle cx="651.6" cy="448.4" r="13.0" fill="#4E79A7" stroke="white" stroke-width="1" opacity="0.55"/><circle cx="759.9" cy="369.4" r="13.0" fill="#4E79A7" stroke="white" stroke-width="1" opacity="0.55"/><circle cx="723.8" cy="425.4" r="13.0" fill="#4E79A7" stroke="white" stroke-width="1" opacity="0.55"/><circle cx="666.2" cy="495.1" r="13.0" fill="#4E79A7" stroke="white" stroke-width="1" opacity="0.55"/><circle cx="499.4" cy="475.0" r="13.0" fill="#4E79A7" stroke="white" stroke-width="1" opacity="0.55"/><circle cx="710.1" cy="465.4" r="13.0" fill="#4E79A7" stroke="white" stroke-width="1" opacity="0.55"/><circle cx="451.2" cy="452.3" r="13.0" fill="#4E79A7" stroke="white" stroke-width="1" opacity="0.55"/><circle cx="529.5" cy="421.2" r="13.0" fill="#4E79A7" stroke="white" stroke-width="1" opacity="0.55"/><circle cx="513.1" cy="467.3" r="13.0" fill="#4E79A7" stroke="white" stroke-width="1" opacity="0.55"/><circle cx="716.1" cy="424.0" r="13.0" fill="#4E79A7" stroke="white" stroke-width="1" opacity="0.55"/><circle cx="613.7" cy="417.7" r="13.0" fill="#4E79A7" stroke="white" stroke-width="1" opacity="0.55"/><circle cx="759.1" cy="411.7" r="13.0" fill="#4E79A7" stroke="white" stroke-width="1" opacity="0.55"/><circle cx="616.3" cy="453.5" r="13.0" fill="#4E79A7" stroke="white" stroke-width="1" opacity="0.55"/><circle cx="659.3" cy="476.8" r="13.0" fill="#4E79A7" stroke="white" stroke-width="1" opacity="0.55"/><circle cx="569.9" cy="419.0" r="13.0" fill="#4E79A7" stroke="white" stroke-width="1" opacity="0.55"/><circle cx="612.9" cy="464.2" r="13.0" fill="#4E79A7" stroke="white" stroke-width="1" opacity="0.55"/><circle cx="669.6" cy="493.7" r="13.0" fill="#4E79A7" stroke="white" stroke-width="1" opacity="0.55"/><circle cx="799.5" cy="447.4" r="13.0" fill="#4E79A7" stroke="white" stroke-width="1" opacity="0.55"/><circle cx="764.2" cy="395.9" r="13.0" fill="#4E79A7" stroke="white" stroke-width="1" opacity="0.55"/><circle cx="397.0" cy="438.1" r="13.0" fill="#4E79A7" stroke="white" stroke-width="1" opacity="0.55"/><circle cx="785.7" cy="427.0" r="13.0" fill="#4E79A7" stroke="white" stroke-width="1" opacity="0.55"/><circle cx="422.8" cy="375.9" r="13.0" fill="#4E79A7" stroke="white" stroke-width="1" opacity="0.55"/><circle cx="398.7" cy="407.2" r="13.0" fill="#4E79A7" stroke="white" stroke-width="1" opacity="0.55"/><circle cx="316.2" cy="399.6" r="13.0" fill="#4E79A7" stroke="white" stroke-width="1" opacity="0.55"/><circle cx="671.4" cy="421.9" r="13.0" fill="#4E79A7" stroke="white" stroke-width="1" opacity="0.55"/><circle cx="764.2" cy="459.3" r="13.0" fill="#4E79A7" stroke="white" stroke-width="1" opacity="0.55"/><circle cx="349.7" cy="420.3" r="13.0" fill="#4E79A7" stroke="white" stroke-width="1" opacity="0.55"/><circle cx="538.1" cy="471.3" r="13.0" fill="#4E79A7" stroke="white" stroke-width="1" opacity="0.55"/><circle cx="670.5" cy="486.6" r="13.0" fill="#4E79A7" stroke="white" stroke-width="1" opacity="0.55"/><circle cx="502.8" cy="323.6" r="7.8" fill="#F28E2B" stroke="white" stroke-width="1" opacity="0.55"/><circle cx="884.6" cy="417.5" r="8.0" fill="#F28E2B" stroke="white" stroke-width="1" opacity="0.55"/><circle cx="574.2" cy="417.4" r="8.8" fill="#F28E2B" stroke="white" stroke-width="1" opacity="0.55"/><circle cx="844.2" cy="385.7" r="8.5" fill="#F28E2B" stroke="white" stroke-width="1" opacity="0.55"/><circle cx="459.8" cy="368.3" r="9.7" fill="#F28E2B" stroke="white" stroke-width="1" opacity="0.55"/><circle cx="769.4" cy="398.6" r="7.0" fill="#F28E2B" stroke="white" stroke-width="1" opacity="0.55"/><circle cx="716.9" cy="377.8" r="7.9" fill="#F28E2B" stroke="white" stroke-width="1" opacity="0.55"/><circle cx="848.5" cy="410.0" r="8.3" fill="#F28E2B" stroke="white" stroke-width="1" opacity="0.55"/><circle cx="636.1" cy="243.6" r="7.1" fill="#F28E2B" stroke="white" stroke-width="1" opacity="0.55"/><circle cx="658.5" cy="430.5" r="10.1" fill="#F28E2B" stroke="white" stroke-width="1" opacity="0.55"/><circle cx="652.4" cy="291.4" r="8.6" fill="#F28E2B" stroke="white" stroke-width="1" opacity="0.55"/><circle cx="563.9" cy="405.1" r="7.7" fill="#F28E2B" stroke="white" stroke-width="1" opacity="0.55"/><circle cx="484.7" cy="396.1" r="9.9" fill="#F28E2B" stroke="white" stroke-width="1" opacity="0.55"/><circle cx="644.7" cy="260.3" r="9.5" fill="#F28E2B" stroke="white" stroke-width="1" opacity="0.55"/><circle cx="446.0" cy="437.2" r="7.9" fill="#F28E2B" stroke="white" stroke-width="1" opacity="0.55"/><circle cx="558.7" cy="352.4" r="6.7" fill="#F28E2B" stroke="white" stroke-width="1" opacity="0.55"/><circle cx="350.6" cy="410.3" r="7.4" fill="#F28E2B" stroke="white" stroke-width="1" opacity="0.55"/><circle cx="676.5" cy="384.8" r="9.8" fill="#F28E2B" stroke="white" stroke-width="1" opacity="0.55"/><circle cx="473.6" cy="312.0" r="7.1" fill="#F28E2B" stroke="white" stroke-width="1" opacity="0.55"/><circle cx="573.3" cy="387.6" r="7.8" fill="#F28E2B" stroke="white" stroke-width="1" opacity="0.55"/><circle cx="439.2" cy="358.8" r="8.8" fill="#F28E2B" stroke="white" stroke-width="1" opacity="0.55"/><circle cx="904.4" cy="461.4" r="8.4" fill="#F28E2B" stroke="white" stroke-width="1" opacity="0.55"/><circle cx="443.5" cy="431.8" r="8.0" fill="#F28E2B" stroke="white" stroke-width="1" opacity="0.55"/><circle cx="825.3" cy="270.9" r="7.5" fill="#F28E2B" stroke="white" stroke-width="1" opacity="0.55"/><circle cx="389.3" cy="361.5" r="9.4" fill="#F28E2B" stroke="white" stroke-width="1" opacity="0.55"/><circle cx="667.9" cy="399.2" r="10.0" fill="#F28E2B" stroke="white" stroke-width="1" opacity="0.55"/><circle cx="427.1" cy="257.6" r="9.3" fill="#F28E2B" stroke="white" stroke-width="1" opacity="0.55"/><circle cx="551.8" cy="350.3" r="8.0" fill="#F28E2B" stroke="white" stroke-width="1" opacity="0.55"/><circle cx="578.5" cy="279.0" r="9.1" fill="#F28E2B" stroke="white" stroke-width="1" opacity="0.55"/><circle cx="707.5" cy="323.6" r="6.9" fill="#F28E2B" stroke="white" stroke-width="1" opacity="0.55"/><circle cx="726.4" cy="280.7" r="9.3" fill="#F28E2B" stroke="white" stroke-width="1" opacity="0.55"/><circle cx="852.0" cy="428.4" r="8.8" fill="#F28E2B" stroke="white" stroke-width="1" opacity="0.55"/><circle cx="420.2" cy="312.7" r="9.4" fill="#F28E2B" stroke="white" stroke-width="1" opacity="0.55"/><circle cx="649.9" cy="188.6" r="8.6" fill="#F28E2B" stroke="white" stroke-width="1" opacity="0.55"/><text x="656.9" y="181.6" font-size="9" text-anchor="start" fill="#F28E2B" font-weight="normal">E034</text><circle cx="868.3" cy="349.6" r="8.6" fill="#F28E2B" stroke="white" stroke-width="1" opacity="0.55"/><circle cx="434.9" cy="271.0" r="7.9" fill="#F28E2B" stroke="white" stroke-width="1" opacity="0.55"/><circle cx="464.1" cy="436.7" r="10.2" fill="#F28E2B" stroke="white" stroke-width="1" opacity="0.55"/><circle cx="379.8" cy="216.6" r="9.7" fill="#F28E2B" stroke="white" stroke-width="1" opacity="0.55"/><text x="386.8" y="209.6" font-size="9" text-anchor="start" fill="#F28E2B" font-weight="normal">E038</text><circle cx="901.8" cy="324.3" r="6.9" fill="#F28E2B" stroke="white" stroke-width="1" opacity="0.55"/><circle cx="563.0" cy="456.6" r="8.2" fill="#F28E2B" stroke="white" stroke-width="1" opacity="0.55"/><circle cx="657.6" cy="434.3" r="7.1" fill="#F28E2B" stroke="white" stroke-width="1" opacity="0.55"/><circle cx="391.9" cy="242.7" r="9.7" fill="#F28E2B" stroke="white" stroke-width="1" opacity="0.55"/><circle cx="772.0" cy="358.4" r="8.4" fill="#F28E2B" stroke="white" stroke-width="1" opacity="0.55"/><circle cx="670.5" cy="216.5" r="7.3" fill="#F28E2B" stroke="white" stroke-width="1" opacity="0.55"/><text x="677.5" y="209.5" font-size="9" text-anchor="start" fill="#F28E2B" font-weight="normal">E044</text><circle cx="407.3" cy="455.1" r="9.9" fill="#F28E2B" stroke="white" stroke-width="1" opacity="0.55"/><circle cx="406.5" cy="271.6" r="8.5" fill="#F28E2B" stroke="white" stroke-width="1" opacity="0.55"/><circle cx="584.5" cy="277.5" r="9.9" fill="#F28E2B" stroke="white" stroke-width="1" opacity="0.55"/><circle cx="632.7" cy="283.7" r="8.3" fill="#F28E2B" stroke="white" stroke-width="1" opacity="0.55"/><circle cx="740.2" cy="402.5" r="8.1" fill="#F28E2B" stroke="white" stroke-width="1" opacity="0.55"/><circle cx="799.5" cy="350.3" r="7.7" fill="#F28E2B" stroke="white" stroke-width="1" opacity="0.55"/><circle cx="815.0" cy="395.4" r="8.9" fill="#F28E2B" stroke="white" stroke-width="1" opacity="0.55"/><circle cx="487.3" cy="356.7" r="10.3" fill="#F28E2B" stroke="white" stroke-width="1" opacity="0.55"/><circle cx="695.4" cy="383.3" r="8.4" fill="#F28E2B" stroke="white" stroke-width="1" opacity="0.55"/><circle cx="422.8" cy="365.0" r="7.1" fill="#F28E2B" stroke="white" stroke-width="1" opacity="0.55"/><circle cx="447.8" cy="351.5" r="7.1" fill="#F28E2B" stroke="white" stroke-width="1" opacity="0.55"/><circle cx="808.1" cy="179.6" r="10.1" fill="#F28E2B" stroke="white" stroke-width="1" opacity="0.55"/><text x="815.1" y="172.6" font-size="9" text-anchor="start" fill="#F28E2B" font-weight="normal">E056</text><circle cx="372.9" cy="268.7" r="7.8" fill="#F28E2B" stroke="white" stroke-width="1" opacity="0.55"/><text x="379.9" y="261.7" font-size="9" text-anchor="start" fill="#F28E2B" font-weight="normal">E057</text><circle cx="652.4" cy="462.5" r="9.5" fill="#F28E2B" stroke="white" stroke-width="1" opacity="0.55"/><circle cx="378.1" cy="335.6" r="9.0" fill="#F28E2B" stroke="white" stroke-width="1" opacity="0.55"/><text x="385.1" y="328.6" font-size="9" text-anchor="start" fill="#F28E2B" font-weight="normal">E059</text><circle cx="863.1" cy="263.7" r="9.2" fill="#F28E2B" stroke="white" stroke-width="1" opacity="0.55"/><circle cx="823.6" cy="351.9" r="9.7" fill="#F28E2B" stroke="white" stroke-width="1" opacity="0.55"/><circle cx="854.5" cy="369.0" r="8.8" fill="#F28E2B" stroke="white" stroke-width="1" opacity="0.55"/><circle cx="773.7" cy="440.0" r="6.8" fill="#F28E2B" stroke="white" stroke-width="1" opacity="0.55"/><circle cx="440.9" cy="380.9" r="8.8" fill="#F28E2B" stroke="white" stroke-width="1" opacity="0.55"/><circle cx="539.8" cy="365.5" r="9.4" fill="#F28E2B" stroke="white" stroke-width="1" opacity="0.55"/><circle cx="811.5" cy="282.7" r="9.3" fill="#F28E2B" stroke="white" stroke-width="1" opacity="0.55"/><circle cx="632.7" cy="371.4" r="8.5" fill="#F28E2B" stroke="white" stroke-width="1" opacity="0.55"/><circle cx="564.7" cy="443.7" r="9.4" fill="#F28E2B" stroke="white" stroke-width="1" opacity="0.55"/><circle cx="497.6" cy="439.9" r="8.0" fill="#F28E2B" stroke="white" stroke-width="1" opacity="0.55"/><circle cx="645.6" cy="258.8" r="10.9" fill="#F28E2B" stroke="white" stroke-width="1" opacity="0.55"/><circle cx="776.3" cy="387.8" r="9.2" fill="#F28E2B" stroke="white" stroke-width="1" opacity="0.55"/><circle cx="388.4" cy="381.5" r="9.1" fill="#F28E2B" stroke="white" stroke-width="1" opacity="0.55"/><circle cx="497.6" cy="190.9" r="7.0" fill="#F28E2B" stroke="white" stroke-width="1" opacity="0.55"/><text x="504.6" y="183.9" font-size="9" text-anchor="start" fill="#F28E2B" font-weight="normal">E073</text><circle cx="609.4" cy="368.6" r="9.8" fill="#F28E2B" stroke="white" stroke-width="1" opacity="0.55"/><circle cx="442.6" cy="121.9" r="7.3" fill="#F28E2B" stroke="white" stroke-width="1" opacity="0.55"/><text x="449.6" y="114.9" font-size="9" text-anchor="start" fill="#F28E2B" font-weight="normal">E075</text><circle cx="578.5" cy="310.4" r="7.2" fill="#F28E2B" stroke="white" stroke-width="1" opacity="0.55"/><circle cx="759.9" cy="166.4" r="8.5" fill="#F28E2B" stroke="white" stroke-width="1" opacity="0.55"/><text x="766.9" y="159.4" font-size="9" text-anchor="start" fill="#F28E2B" font-weight="normal">E077</text><circle cx="674.8" cy="425.7" r="9.6" fill="#F28E2B" stroke="white" stroke-width="1" opacity="0.55"/><circle cx="905.3" cy="226.5" r="7.4" fill="#F28E2B" stroke="white" stroke-width="1" opacity="0.55"/><text x="912.3" y="219.5" font-size="9" text-anchor="start" fill="#F28E2B" font-weight="normal">E079</text><circle cx="484.7" cy="309.3" r="9.6" fill="#F28E2B" stroke="white" stroke-width="1" opacity="0.55"/><circle cx="562.1" cy="321.4" r="6.6" fill="#F28E2B" stroke="white" stroke-width="1" opacity="0.55"/><circle cx="875.2" cy="387.0" r="10.1" fill="#F28E2B" stroke="white" stroke-width="1" opacity="0.55"/><circle cx="835.6" cy="267.5" r="9.1" fill="#F28E2B" stroke="white" stroke-width="1" opacity="0.55"/><circle cx="686.0" cy="369.0" r="7.1" fill="#F28E2B" stroke="white" stroke-width="1" opacity="0.55"/><circle cx="698.9" cy="293.5" r="8.2" fill="#F28E2B" stroke="white" stroke-width="1" opacity="0.55"/><circle cx="354.0" cy="263.9" r="10.1" fill="#F28E2B" stroke="white" stroke-width="1" opacity="0.55"/><text x="361.0" y="256.9" font-size="9" text-anchor="start" fill="#F28E2B" font-weight="normal">E086</text><circle cx="723.8" cy="359.7" r="8.8" fill="#F28E2B" stroke="white" stroke-width="1" opacity="0.55"/><circle cx="772.8" cy="272.9" r="9.4" fill="#F28E2B" stroke="white" stroke-width="1" opacity="0.55"/><circle cx="441.7" cy="450.0" r="9.5" fill="#F28E2B" stroke="white" stroke-width="1" opacity="0.55"/><circle cx="606.9" cy="392.9" r="7.5" fill="#F28E2B" stroke="white" stroke-width="1" opacity="0.55"/><circle cx="578.5" cy="302.4" r="8.7" fill="#F28E2B" stroke="white" stroke-width="1" opacity="0.55"/><circle cx="825.3" cy="197.6" r="7.5" fill="#F28E2B" stroke="white" stroke-width="1" opacity="0.55"/><text x="832.3" y="190.6" font-size="9" text-anchor="start" fill="#F28E2B" font-weight="normal">E092</text><circle cx="409.1" cy="315.7" r="7.8" fill="#F28E2B" stroke="white" stroke-width="1" opacity="0.55"/><circle cx="367.8" cy="186.1" r="9.3" fill="#F28E2B" stroke="white" stroke-width="1" opacity="0.55"/><text x="374.8" y="179.1" font-size="9" text-anchor="start" fill="#F28E2B" font-weight="normal">E094</text><circle cx="394.4" cy="151.7" r="10.1" fill="#F28E2B" stroke="white" stroke-width="1" opacity="0.55"/><text x="401.4" y="144.7" font-size="9" text-anchor="start" fill="#F28E2B" font-weight="normal">E095</text><circle cx="840.8" cy="266.8" r="8.7" fill="#F28E2B" stroke="white" stroke-width="1" opacity="0.55"/><circle cx="411.6" cy="332.6" r="8.1" fill="#F28E2B" stroke="white" stroke-width="1" opacity="0.55"/><circle cx="386.7" cy="163.3" r="8.2" fill="#F28E2B" stroke="white" stroke-width="1" opacity="0.55"/><text x="393.7" y="156.3" font-size="9" text-anchor="start" fill="#F28E2B" font-weight="normal">E098</text><circle cx="387.6" cy="368.1" r="7.5" fill="#F28E2B" stroke="white" stroke-width="1" opacity="0.55"/><circle cx="771.1" cy="465.5" r="7.9" fill="#F28E2B" stroke="white" stroke-width="1" opacity="0.55"/><circle cx="747.9" cy="426.8" r="8.7" fill="#F28E2B" stroke="white" stroke-width="1" opacity="0.55"/><circle cx="516.6" cy="205.7" r="7.2" fill="#F28E2B" stroke="white" stroke-width="1" opacity="0.55"/><text x="523.6" y="198.7" font-size="9" text-anchor="start" fill="#F28E2B" font-weight="normal">E102</text><circle cx="443.5" cy="454.0" r="8.9" fill="#F28E2B" stroke="white" stroke-width="1" opacity="0.55"/><circle cx="651.6" cy="378.4" r="7.9" fill="#F28E2B" stroke="white" stroke-width="1" opacity="0.55"/><circle cx="402.2" cy="232.8" r="10.5" fill="#F28E2B" stroke="white" stroke-width="1" opacity="0.55"/><text x="409.2" y="225.8" font-size="9" text-anchor="start" fill="#F28E2B" font-weight="normal">E105</text><circle cx="898.4" cy="289.9" r="7.3" fill="#F28E2B" stroke="white" stroke-width="1" opacity="0.55"/><circle cx="431.4" cy="426.4" r="7.2" fill="#F28E2B" stroke="white" stroke-width="1" opacity="0.55"/><circle cx="613.7" cy="443.8" r="10.3" fill="#F28E2B" stroke="white" stroke-width="1" opacity="0.55"/><circle cx="360.0" cy="168.0" r="9.2" fill="#F28E2B" stroke="white" stroke-width="1" opacity="0.55"/><text x="367.0" y="161.0" font-size="9" text-anchor="start" fill="#F28E2B" font-weight="normal">E109</text><circle cx="904.4" cy="420.6" r="7.0" fill="#F28E2B" stroke="white" stroke-width="1" opacity="0.55"/><circle cx="720.0" cy="555.0" r="7.0" fill="#4E79A7" stroke="white" stroke-width="1" opacity="0.7"/><text x="733.0" y="559.0" font-size="11" text-anchor="start" fill="#25313c" font-weight="normal">Internal</text><circle cx="810.0" cy="555.0" r="7.0" fill="#F28E2B" stroke="white" stroke-width="1" opacity="0.7"/><text x="823.0" y="559.0" font-size="11" text-anchor="start" fill="#25313c" font-weight="normal">External</text><text x="50.0" y="602.0" font-size="11" text-anchor="start" fill="#697887" font-weight="normal">Figure 7. This is an input-attribute map, not evidence of policy-specific project selection.</text></svg>