<svg xmlns="http://www.w3.org/2000/svg" width="1000" height="620" viewBox="0 0 1000 620"><rect width="100%" height="100%" fill="white"/><text x="50.0" y="38.0" font-size="22" text-anchor="start" fill="#16222e" font-weight="bold">Project attribute portfolio map</text><text x="50.0" y="62.0" font-size="13" text-anchor="start" fill="#536273" font-weight="normal">Expected margin value versus resource burden; external bubble size reflects estimated win probability</text><rect x="90.0" y="95.0" width="860.0" height="395.0" fill="#fbfcfd" stroke="#d8dee6" stroke-width="1" opacity="1"/><line x1="90.0" y1="490.0" x2="950.0" y2="490.0" stroke="#e7ebef" stroke-width="1"/><text x="80.0" y="494.0" font-size="11" text-anchor="end" fill="#25313c" font-weight="normal">0</text><line x1="90.0" y1="441.1" x2="950.0" y2="441.1" stroke="#e7ebef" stroke-width="1"/><text x="80.0" y="445.1" font-size="11" text-anchor="end" fill="#25313c" font-weight="normal">200</text><line x1="90.0" y1="392.2" x2="950.0" y2="392.2" stroke="#e7ebef" stroke-width="1"/><text x="80.0" y="396.2" font-size="11" text-anchor="end" fill="#25313c" font-weight="normal">400</text><line x1="90.0" y1="343.3" x2="950.0" y2="343.3" stroke="#e7ebef" stroke-width="1"/><text x="80.0" y="347.3" font-size="11" text-anchor="end" fill="#25313c" font-weight="normal">600</text><line x1="90.0" y1="294.4" x2="950.0" y2="294.4" stroke="#e7ebef" stroke-width="1"/><text x="80.0" y="298.4" font-size="11" text-anchor="end" fill="#25313c" font-weight="normal">800</text><line x1="90.0" y1="245.5" x2="950.0" y2="245.5" stroke="#e7ebef" stroke-width="1"/><text x="80.0" y="249.5" font-size="11" text-anchor="end" fill="#25313c" font-weight="normal">1000</text><line x1="90.0" y1="95.0" x2="90.0" y2="490.0" stroke="#eef1f4" stroke-width="1"/><text x="90.0" y="512.0" font-size="11" text-anchor="middle" fill="#25313c" font-weight="normal">0.0</text><line x1="262.0" y1="95.0" x2="262.0" y2="490.0" stroke="#eef1f4" stroke-width="1"/><text x="262.0" y="512.0" font-size="11" text-anchor="middle" fill="#25313c" font-weight="normal">0.2</text><line x1="434.0" y1="95.0" x2="434.0" y2="490.0" stroke="#eef1f4" stroke-width="1"/><text x="434.0" y="512.0" font-size="11" text-anchor="middle" fill="#25313c" font-weight="normal">0.4</text><line x1="606.0" y1="95.0" x2="606.0" y2="490.0" stroke="#eef1f4" stroke-width="1"/><text x="606.0" y="512.0" font-size="11" text-anchor="middle" fill="#25313c" font-weight="normal">0.6</text><line x1="778.0" y1="95.0" x2="778.0" y2="490.0" stroke="#eef1f4" stroke-width="1"/><text x="778.0" y="512.0" font-size="11" text-anchor="middle" fill="#25313c" font-weight="normal">0.8</text><line x1="950.0" y1="95.0" x2="950.0" y2="490.0" stroke="#eef1f4" stroke-width="1"/><text x="950.0" y="512.0" font-size="11" text-anchor="middle" fill="#25313c" font-weight="normal">1.0</text><circle cx="377.2" cy="364.7" r="13.0" fill="#4E79A7" stroke="white" stroke-width="1" opacity="0.55"/><circle cx="556.1" cy="445.7" r="13.0" fill="#4E79A7" stroke="white" stroke-width="1" opacity="0.55"/><circle cx="814.1" cy="460.6" r="13.0" fill="#4E79A7" stroke="white" stroke-width="1" opacity="0.55"/><circle cx="459.8" cy="427.7" r="13.0" fill="#4E79A7" stroke="white" stroke-width="1" opacity="0.55"/><circle cx="535.5" cy="414.9" r="13.0" fill="#4E79A7" stroke="white" stroke-width="1" opacity="0.55"/><circle cx="583.6" cy="435.9" r="13.0" fill="#4E79A7" stroke="white" stroke-width="1" opacity="0.55"/><circle cx="417.7" cy="445.2" r="13.0" fill="#4E79A7" stroke="white" stroke-width="1" opacity="0.55"/><circle cx="760.8" cy="464.8" r="13.0" fill="#4E79A7" stroke="white" stroke-width="1" opacity="0.55"/><circle cx="532.9" cy="405.0" r="13.0" fill="#4E79A7" stroke="white" stroke-width="1" opacity="0.55"/><circle cx="636.1" cy="437.9" r="13.0" fill="#4E79A7" stroke="white" stroke-width="1" opacity="0.55"/><circle cx="343.7" cy="406.4" r="13.0" fill="#4E79A7" stroke="white" stroke-width="1" opacity="0.55"/><circle cx="346.3" cy="399.5" r="13.0" fill="#4E79A7" stroke="white" stroke-width="1" opacity="0.55"/><circle cx="534.6" cy="456.9" r="13.0" fill="#4E79A7" stroke="white" stroke-width="1" opacity="0.55"/><circle cx="436.6" cy="456.6" r="13.0" fill="#4E79A7" stroke="white" stroke-width="1" opacity="0.55"/><circle cx="798.6" cy="445.9" r="13.0" fill="#4E79A7" stroke="white" stroke-width="1" opacity="0.55"/><circle cx="711.8" cy="432.5" r="13.0" fill="#4E79A7" stroke="white" stroke-width="1" opacity="0.55"/><circle cx="459.8" cy="460.7" r="13.0" fill="#4E79A7" stroke="white" stroke-width="1" opacity="0.55"/><circle cx="323.9" cy="385.4" r="13.0" fill="#4E79A7" stroke="white" stroke-width="1" opacity="0.55"/><circle cx="636.1" cy="454.7" r="13.0" fill="#4E79A7" stroke="white" stroke-width="1" opacity="0.55"/><circle cx="741.0" cy="415.9" r="13.0" fill="#4E79A7" stroke="white" stroke-width="1" opacity="0.55"/><circle cx="633.5" cy="427.7" r="13.0" fill="#4E79A7" stroke="white" stroke-width="1" opacity="0.55"/><circle cx="332.5" cy="460.2" r="13.0" fill="#4E79A7" stroke="white" stroke-width="1" opacity="0.55"/><circle cx="577.6" cy="449.6" r="13.0" fill="#4E79A7" stroke="white" stroke-width="1" opacity="0.55"/><circle cx="459.8" cy="447.0" r="13.0" fill="#4E79A7" stroke="white" stroke-width="1" opacity="0.55"/><circle cx="661.0" cy="459.8" r="13.0" fill="#4E79A7" stroke="white" stroke-width="1" opacity="0.55"/><circle cx="772.0" cy="433.0" r="13.0" fill="#4E79A7" stroke="white" stroke-width="1" opacity="0.55"/><circle cx="679.1" cy="396.5" r="13.0" fill="#4E79A7" stroke="white" stroke-width="1" opacity="0.55"/><circle cx="481.3" cy="453.8" r="13.0" fill="#4E79A7" stroke="white" stroke-width="1" opacity="0.55"/><circle cx="606.0" cy="410.3" r="13.0" fill="#4E79A7" stroke="white" stroke-width="1" opacity="0.55"/><circle cx="817.6" cy="381.6" r="13.0" fill="#4E79A7" stroke="white" stroke-width="1" opacity="0.55"/><circle cx="470.1" cy="385.2" r="13.0" fill="#4E79A7" stroke="white" stroke-width="1" opacity="0.55"/><circle cx="399.6" cy="438.7" r="13.0" fill="#4E79A7" stroke="white" stroke-width="1" opacity="0.55"/><circle cx="547.5" cy="420.9" r="13.0" fill="#4E79A7" stroke="white" stroke-width="1" opacity="0.55"/><circle cx="766.8" cy="397.7" r="13.0" fill="#4E79A7" stroke="white" stroke-width="1" opacity="0.55"/><circle cx="482.2" cy="415.2" r="13.0" fill="#4E79A7" stroke="white" stroke-width="1" opacity="0.55"/><circle cx="784.0" cy="437.1" r="13.0" fill="#4E79A7" stroke="white" stroke-width="1" opacity="0.55"/><circle cx="716.9" cy="378.6" r="13.0" fill="#4E79A7" stroke="white" stroke-width="1" opacity="0.55"/><circle cx="782.3" cy="421.7" r="13.0" fill="#4E79A7" stroke="white" stroke-width="1" opacity="0.55"/><circle cx="392.7" cy="418.9" r="13.0" fill="#4E79A7" stroke="white" stroke-width="1" opacity="0.55"/><circle cx="555.3" cy="451.9" r="13.0" fill="#4E79A7" stroke="white" stroke-width="1" opacity="0.55"/><circle cx="612.0" cy="453.1" r="13.0" fill="#4E79A7" stroke="white" stroke-width="1" opacity="0.55"/><circle cx="661.9" cy="431.8" r="13.0" fill="#4E79A7" stroke="white" stroke-width="1" opacity="0.55"/><circle cx="436.6" cy="342.2" r="13.0" fill="#4E79A7" stroke="white" stroke-width="1" opacity="0.55"/><circle cx="344.6" cy="370.9" r="13.0" fill="#4E79A7" stroke="white" stroke-width="1" opacity="0.55"/><circle cx="429.7" cy="375.0" r="13.0" fill="#4E79A7" stroke="white" stroke-width="1" opacity="0.55"/><circle cx="391.9" cy="437.4" r="13.0" fill="#4E79A7" stroke="white" stroke-width="1" opacity="0.55"/><circle cx="546.7" cy="417.5" r="13.0" fill="#4E79A7" stroke="white" stroke-width="1" opacity="0.55"/><circle cx="796.9" cy="426.4" r="13.0" fill="#4E79A7" stroke="white" stroke-width="1" opacity="0.55"/><circle cx="712.6" cy="450.6" r="13.0" fill="#4E79A7" stroke="white" stroke-width="1" opacity="0.55"/><circle cx="804.7" cy="418.5" r="13.0" fill="#4E79A7" stroke="white" stroke-width="1" opacity="0.55"/><circle cx="736.7" cy="387.8" r="13.0" fill="#4E79A7" stroke="white" stroke-width="1" opacity="0.55"/><circle cx="651.6" cy="424.2" r="13.0" fill="#4E79A7" stroke="white" stroke-width="1" opacity="0.55"/><circle cx="759.9" cy="351.7" r="13.0" fill="#4E79A7" stroke="white" stroke-width="1" opacity="0.55"/><circle cx="723.8" cy="403.1" r="13.0" fill="#4E79A7" stroke="white" stroke-width="1" opacity="0.55"/><circle cx="666.2" cy="467.2" r="13.0" fill="#4E79A7" stroke="white" stroke-width="1" opacity="0.55"/><circle cx="499.4" cy="448.7" r="13.0" fill="#4E79A7" stroke="white" stroke-width="1" opacity="0.55"/><circle cx="710.1" cy="439.8" r="13.0" fill="#4E79A7" stroke="white" stroke-width="1" opacity="0.55"/><circle cx="451.2" cy="427.8" r="13.0" fill="#4E79A7" stroke="white" stroke-width="1" opacity="0.55"/><circle cx="529.5" cy="399.2" r="13.0" fill="#4E79A7" stroke="white" stroke-width="1" opacity="0.55"/><circle cx="513.1" cy="441.6" r="13.0" fill="#4E79A7" stroke="white" stroke-width="1" opacity="0.55"/><circle cx="716.1" cy="401.8" r="13.0" fill="#4E79A7" stroke="white" stroke-width="1" opacity="0.55"/><circle cx="613.7" cy="396.0" r="13.0" fill="#4E79A7" stroke="white" stroke-width="1" opacity="0.55"/><circle cx="759.1" cy="390.5" r="13.0" fill="#4E79A7" stroke="white" stroke-width="1" opacity="0.55"/><circle cx="616.3" cy="428.9" r="13.0" fill="#4E79A7" stroke="white" stroke-width="1" opacity="0.55"/><circle cx="659.3" cy="450.3" r="13.0" fill="#4E79A7" stroke="white" stroke-width="1" opacity="0.55"/><circle cx="569.9" cy="397.3" r="13.0" fill="#4E79A7" stroke="white" stroke-width="1" opacity="0.55"/><circle cx="612.9" cy="438.7" r="13.0" fill="#4E79A7" stroke="white" stroke-width="1" opacity="0.55"/><circle cx="669.6" cy="465.8" r="13.0" fill="#4E79A7" stroke="white" stroke-width="1" opacity="0.55"/><circle cx="799.5" cy="423.3" r="13.0" fill="#4E79A7" stroke="white" stroke-width="1" opacity="0.55"/><circle cx="764.2" cy="376.0" r="13.0" fill="#4E79A7" stroke="white" stroke-width="1" opacity="0.55"/><circle cx="397.0" cy="414.7" r="13.0" fill="#4E79A7" stroke="white" stroke-width="1" opacity="0.55"/><circle cx="785.7" cy="404.6" r="13.0" fill="#4E79A7" stroke="white" stroke-width="1" opacity="0.55"/><circle cx="422.8" cy="357.6" r="13.0" fill="#4E79A7" stroke="white" stroke-width="1" opacity="0.55"/><circle cx="398.7" cy="386.3" r="13.0" fill="#4E79A7" stroke="white" stroke-width="1" opacity="0.55"/><circle cx="316.2" cy="379.4" r="13.0" fill="#4E79A7" stroke="white" stroke-width="1" opacity="0.55"/><circle cx="671.4" cy="399.9" r="13.0" fill="#4E79A7" stroke="white" stroke-width="1" opacity="0.55"/><circle cx="764.2" cy="434.3" r="13.0" fill="#4E79A7" stroke="white" stroke-width="1" opacity="0.55"/><circle cx="349.7" cy="398.4" r="13.0" fill="#4E79A7" stroke="white" stroke-width="1" opacity="0.55"/><circle cx="538.1" cy="445.3" r="13.0" fill="#4E79A7" stroke="white" stroke-width="1" opacity="0.55"/><circle cx="670.5" cy="459.3" r="13.0" fill="#4E79A7" stroke="white" stroke-width="1" opacity="0.55"/><circle cx="502.8" cy="309.6" r="7.8" fill="#F28E2B" stroke="white" stroke-width="1" opacity="0.55"/><circle cx="884.6" cy="395.9" r="8.0" fill="#F28E2B" stroke="white" stroke-width="1" opacity="0.55"/><circle cx="574.2" cy="395.8" r="8.8" fill="#F28E2B" stroke="white" stroke-width="1" opacity="0.55"/><circle cx="844.2" cy="366.7" r="8.5" fill="#F28E2B" stroke="white" stroke-width="1" opacity="0.55"/><circle cx="459.8" cy="350.7" r="9.7" fill="#F28E2B" stroke="white" stroke-width="1" opacity="0.55"/><circle cx="769.4" cy="378.4" r="7.0" fill="#F28E2B" stroke="white" stroke-width="1" opacity="0.55"/><circle cx="716.9" cy="359.4" r="7.9" fill="#F28E2B" stroke="white" stroke-width="1" opacity="0.55"/><circle cx="848.5" cy="389.0" r="8.3" fill="#F28E2B" stroke="white" stroke-width="1" opacity="0.55"/><circle cx="636.1" cy="236.1" r="7.1" fill="#F28E2B" stroke="white" stroke-width="1" opacity="0.55"/><circle cx="658.5" cy="407.7" r="10.1" fill="#F28E2B" stroke="white" stroke-width="1" opacity="0.55"/><circle cx="652.4" cy="280.0" r="8.6" fill="#F28E2B" stroke="white" stroke-width="1" opacity="0.55"/><circle cx="563.9" cy="384.5" r="7.7" fill="#F28E2B" stroke="white" stroke-width="1" opacity="0.55"/><circle cx="484.7" cy="376.2" r="9.9" fill="#F28E2B" stroke="white" stroke-width="1" opacity="0.55"/><circle cx="644.7" cy="251.4" r="9.5" fill="#F28E2B" stroke="white" stroke-width="1" opacity="0.55"/><circle cx="446.0" cy="414.0" r="7.9" fill="#F28E2B" stroke="white" stroke-width="1" opacity="0.55"/><circle cx="558.7" cy="336.0" r="6.7" fill="#F28E2B" stroke="white" stroke-width="1" opacity="0.55"/><circle cx="350.6" cy="389.2" r="7.4" fill="#F28E2B" stroke="white" stroke-width="1" opacity="0.55"/><circle cx="676.5" cy="365.8" r="9.8" fill="#F28E2B" stroke="white" stroke-width="1" opacity="0.55"/><circle cx="473.6" cy="298.9" r="7.1" fill="#F28E2B" stroke="white" stroke-width="1" opacity="0.55"/><circle cx="573.3" cy="368.3" r="7.8" fill="#F28E2B" stroke="white" stroke-width="1" opacity="0.55"/><circle cx="439.2" cy="341.9" r="8.8" fill="#F28E2B" stroke="white" stroke-width="1" opacity="0.55"/><circle cx="904.4" cy="436.2" r="8.4" fill="#F28E2B" stroke="white" stroke-width="1" opacity="0.55"/><circle cx="443.5" cy="409.0" r="8.0" fill="#F28E2B" stroke="white" stroke-width="1" opacity="0.55"/><circle cx="825.3" cy="261.2" r="7.5" fill="#F28E2B" stroke="white" stroke-width="1" opacity="0.55"/><circle cx="389.3" cy="344.4" r="9.4" fill="#F28E2B" stroke="white" stroke-width="1" opacity="0.55"/><circle cx="667.9" cy="379.0" r="10.0" fill="#F28E2B" stroke="white" stroke-width="1" opacity="0.55"/><circle cx="427.1" cy="248.9" r="9.3" fill="#F28E2B" stroke="white" stroke-width="1" opacity="0.55"/><circle cx="551.8" cy="334.2" r="8.0" fill="#F28E2B" stroke="white" stroke-width="1" opacity="0.55"/><circle cx="578.5" cy="268.6" r="9.1" fill="#F28E2B" stroke="white" stroke-width="1" opacity="0.55"/><circle cx="707.5" cy="309.6" r="6.9" fill="#F28E2B" stroke="white" stroke-width="1" opacity="0.55"/><circle cx="726.4" cy="270.2" r="9.3" fill="#F28E2B" stroke="white" stroke-width="1" opacity="0.55"/><circle cx="852.0" cy="405.8" r="8.8" fill="#F28E2B" stroke="white" stroke-width="1" opacity="0.55"/><circle cx="420.2" cy="299.6" r="9.4" fill="#F28E2B" stroke="white" stroke-width="1" opacity="0.55"/><circle cx="649.9" cy="185.6" r="8.6" fill="#F28E2B" stroke="white" stroke-width="1" opacity="0.55"/><text x="656.9" y="178.6" font-size="9" text-anchor="start" fill="#F28E2B" font-weight="normal">E034</text><circle cx="868.3" cy="333.5" r="8.6" fill="#F28E2B" stroke="white" stroke-width="1" opacity="0.55"/><circle cx="434.9" cy="261.3" r="7.9" fill="#F28E2B" stroke="white" stroke-width="1" opacity="0.55"/><circle cx="464.1" cy="413.4" r="10.2" fill="#F28E2B" stroke="white" stroke-width="1" opacity="0.55"/><circle cx="379.8" cy="211.3" r="9.7" fill="#F28E2B" stroke="white" stroke-width="1" opacity="0.55"/><text x="386.8" y="204.3" font-size="9" text-anchor="start" fill="#F28E2B" font-weight="normal">E038</text><circle cx="901.8" cy="310.3" r="6.9" fill="#F28E2B" stroke="white" stroke-width="1" opacity="0.55"/><circle cx="563.0" cy="431.7" r="8.2" fill="#F28E2B" stroke="white" stroke-width="1" opacity="0.55"/><circle cx="657.6" cy="411.3" r="7.1" fill="#F28E2B" stroke="white" stroke-width="1" opacity="0.55"/><circle cx="391.9" cy="235.3" r="9.7" fill="#F28E2B" stroke="white" stroke-width="1" opacity="0.55"/><circle cx="772.0" cy="341.5" r="8.4" fill="#F28E2B" stroke="white" stroke-width="1" opacity="0.55"/><circle cx="670.5" cy="211.2" r="7.3" fill="#F28E2B" stroke="white" stroke-width="1" opacity="0.55"/><text x="677.5" y="204.2" font-size="9" text-anchor="start" fill="#F28E2B" font-weight="normal">E044</text><circle cx="407.3" cy="430.4" r="9.9" fill="#F28E2B" stroke="white" stroke-width="1" opacity="0.55"/><circle cx="406.5" cy="261.8" r="8.5" fill="#F28E2B" stroke="white" stroke-width="1" opacity="0.55"/><circle cx="584.5" cy="267.3" r="9.9" fill="#F28E2B" stroke="white" stroke-width="1" opacity="0.55"/><circle cx="632.7" cy="272.9" r="8.3" fill="#F28E2B" stroke="white" stroke-width="1" opacity="0.55"/><circle cx="740.2" cy="382.1" r="8.1" fill="#F28E2B" stroke="white" stroke-width="1" opacity="0.55"/><circle cx="799.5" cy="334.1" r="7.7" fill="#F28E2B" stroke="white" stroke-width="1" opacity="0.55"/><circle cx="815.0" cy="375.5" r="8.9" fill="#F28E2B" stroke="white" stroke-width="1" opacity="0.55"/><circle cx="487.3" cy="340.0" r="10.3" fill="#F28E2B" stroke="white" stroke-width="1" opacity="0.55"/><circle cx="695.4" cy="364.4" r="8.4" fill="#F28E2B" stroke="white" stroke-width="1" opacity="0.55"/><circle cx="422.8" cy="347.6" r="7.1" fill="#F28E2B" stroke="white" stroke-width="1" opacity="0.55"/><circle cx="447.8" cy="335.2" r="7.1" fill="#F28E2B" stroke="white" stroke-width="1" opacity="0.55"/><circle cx="808.1" cy="177.3" r="10.1" fill="#F28E2B" stroke="white" stroke-width="1" opacity="0.55"/><text x="815.1" y="170.3" font-size="9" text-anchor="start" fill="#F28E2B" font-weight="normal">E056</text><circle cx="372.9" cy="259.2" r="7.8" fill="#F28E2B" stroke="white" stroke-width="1" opacity="0.55"/><text x="379.9" y="252.2" font-size="9" text-anchor="start" fill="#F28E2B" font-weight="normal">E057</text><circle cx="652.4" cy="437.2" r="9.5" fill="#F28E2B" stroke="white" stroke-width="1" opacity="0.55"/><circle cx="378.1" cy="320.6" r="9.0" fill="#F28E2B" stroke="white" stroke-width="1" opacity="0.55"/><text x="385.1" y="313.6" font-size="9" text-anchor="start" fill="#F28E2B" font-weight="normal">E059</text><circle cx="863.1" cy="254.5" r="9.2" fill="#F28E2B" stroke="white" stroke-width="1" opacity="0.55"/><circle cx="823.6" cy="335.6" r="9.7" fill="#F28E2B" stroke="white" stroke-width="1" opacity="0.55"/><circle cx="854.5" cy="351.3" r="8.8" fill="#F28E2B" stroke="white" stroke-width="1" opacity="0.55"/><circle cx="773.7" cy="416.5" r="6.8" fill="#F28E2B" stroke="white" stroke-width="1" opacity="0.55"/><circle cx="440.9" cy="362.3" r="8.8" fill="#F28E2B" stroke="white" stroke-width="1" opacity="0.55"/><circle cx="539.8" cy="348.1" r="9.4" fill="#F28E2B" stroke="white" stroke-width="1" opacity="0.55"/><circle cx="811.5" cy="272.0" r="9.3" fill="#F28E2B" stroke="white" stroke-width="1" opacity="0.55"/><circle cx="632.7" cy="353.5" r="8.5" fill="#F28E2B" stroke="white" stroke-width="1" opacity="0.55"/><circle cx="564.7" cy="419.9" r="9.4" fill="#F28E2B" stroke="white" stroke-width="1" opacity="0.55"/><circle cx="497.6" cy="416.4" r="8.0" fill="#F28E2B" stroke="white" stroke-width="1" opacity="0.55"/><circle cx="645.6" cy="250.1" r="10.9" fill="#F28E2B" stroke="white" stroke-width="1" opacity="0.55"/><circle cx="776.3" cy="368.6" r="9.2" fill="#F28E2B" stroke="white" stroke-width="1" opacity="0.55"/><circle cx="388.4" cy="362.8" r="9.1" fill="#F28E2B" stroke="white" stroke-width="1" opacity="0.55"/><circle cx="497.6" cy="187.7" r="7.0" fill="#F28E2B" stroke="white" stroke-width="1" opacity="0.55"/><text x="504.6" y="180.7" font-size="9" text-anchor="start" fill="#F28E2B" font-weight="normal">E073</text><circle cx="609.4" cy="350.9" r="9.8" fill="#F28E2B" stroke="white" stroke-width="1" opacity="0.55"/><circle cx="442.6" cy="124.3" r="7.3" fill="#F28E2B" stroke="white" stroke-width="1" opacity="0.55"/><text x="449.6" y="117.3" font-size="9" text-anchor="start" fill="#F28E2B" font-weight="normal">E075</text><circle cx="578.5" cy="297.5" r="7.2" fill="#F28E2B" stroke="white" stroke-width="1" opacity="0.55"/><circle cx="759.9" cy="165.1" r="8.5" fill="#F28E2B" stroke="white" stroke-width="1" opacity="0.55"/><text x="766.9" y="158.1" font-size="9" text-anchor="start" fill="#F28E2B" font-weight="normal">E077</text><circle cx="674.8" cy="403.4" r="9.6" fill="#F28E2B" stroke="white" stroke-width="1" opacity="0.55"/><circle cx="905.3" cy="220.4" r="7.4" fill="#F28E2B" stroke="white" stroke-width="1" opacity="0.55"/><text x="912.3" y="213.4" font-size="9" text-anchor="start" fill="#F28E2B" font-weight="normal">E079</text><circle cx="484.7" cy="296.5" r="9.6" fill="#F28E2B" stroke="white" stroke-width="1" opacity="0.55"/><circle cx="562.1" cy="307.5" r="6.6" fill="#F28E2B" stroke="white" stroke-width="1" opacity="0.55"/><circle cx="875.2" cy="367.8" r="10.1" fill="#F28E2B" stroke="white" stroke-width="1" opacity="0.55"/><circle cx="835.6" cy="258.1" r="9.1" fill="#F28E2B" stroke="white" stroke-width="1" opacity="0.55"/><circle cx="686.0" cy="351.3" r="7.1" fill="#F28E2B" stroke="white" stroke-width="1" opacity="0.55"/><circle cx="698.9" cy="281.9" r="8.2" fill="#F28E2B" stroke="white" stroke-width="1" opacity="0.55"/><circle cx="354.0" cy="254.7" r="10.1" fill="#F28E2B" stroke="white" stroke-width="1" opacity="0.55"/><text x="361.0" y="247.7" font-size="9" text-anchor="start" fill="#F28E2B" font-weight="normal">E086</text><circle cx="723.8" cy="342.7" r="8.8" fill="#F28E2B" stroke="white" stroke-width="1" opacity="0.55"/><circle cx="772.8" cy="263.0" r="9.4" fill="#F28E2B" stroke="white" stroke-width="1" opacity="0.55"/><circle cx="441.7" cy="425.7" r="9.5" fill="#F28E2B" stroke="white" stroke-width="1" opacity="0.55"/><circle cx="606.9" cy="373.2" r="7.5" fill="#F28E2B" stroke="white" stroke-width="1" opacity="0.55"/><circle cx="578.5" cy="290.1" r="8.7" fill="#F28E2B" stroke="white" stroke-width="1" opacity="0.55"/><circle cx="825.3" cy="193.9" r="7.5" fill="#F28E2B" stroke="white" stroke-width="1" opacity="0.55"/><text x="832.3" y="186.9" font-size="9" text-anchor="start" fill="#F28E2B" font-weight="normal">E092</text><circle cx="409.1" cy="302.3" r="7.8" fill="#F28E2B" stroke="white" stroke-width="1" opacity="0.55"/><circle cx="367.8" cy="183.3" r="9.3" fill="#F28E2B" stroke="white" stroke-width="1" opacity="0.55"/><text x="374.8" y="176.3" font-size="9" text-anchor="start" fill="#F28E2B" font-weight="normal">E094</text><circle cx="394.4" cy="151.6" r="10.1" fill="#F28E2B" stroke="white" stroke-width="1" opacity="0.55"/><text x="401.4" y="144.6" font-size="9" text-anchor="start" fill="#F28E2B" font-weight="normal">E095</text><circle cx="840.8" cy="257.4" r="8.7" fill="#F28E2B" stroke="white" stroke-width="1" opacity="0.55"/><circle cx="411.6" cy="317.8" r="8.1" fill="#F28E2B" stroke="white" stroke-width="1" opacity="0.55"/><circle cx="386.7" cy="162.3" r="8.2" fill="#F28E2B" stroke="white" stroke-width="1" opacity="0.55"/><text x="393.7" y="155.3" font-size="9" text-anchor="start" fill="#F28E2B" font-weight="normal">E098</text><circle cx="387.6" cy="350.4" r="7.5" fill="#F28E2B" stroke="white" stroke-width="1" opacity="0.55"/><circle cx="771.1" cy="440.0" r="7.9" fill="#F28E2B" stroke="white" stroke-width="1" opacity="0.55"/><circle cx="747.9" cy="404.4" r="8.7" fill="#F28E2B" stroke="white" stroke-width="1" opacity="0.55"/><circle cx="516.6" cy="201.3" r="7.2" fill="#F28E2B" stroke="white" stroke-width="1" opacity="0.55"/><text x="523.6" y="194.3" font-size="9" text-anchor="start" fill="#F28E2B" font-weight="normal">E102</text><circle cx="443.5" cy="429.4" r="8.9" fill="#F28E2B" stroke="white" stroke-width="1" opacity="0.55"/><circle cx="651.6" cy="360.0" r="7.9" fill="#F28E2B" stroke="white" stroke-width="1" opacity="0.55"/><circle cx="402.2" cy="226.2" r="10.5" fill="#F28E2B" stroke="white" stroke-width="1" opacity="0.55"/><text x="409.2" y="219.2" font-size="9" text-anchor="start" fill="#F28E2B" font-weight="normal">E105</text><circle cx="898.4" cy="278.6" r="7.3" fill="#F28E2B" stroke="white" stroke-width="1" opacity="0.55"/><circle cx="431.4" cy="404.1" r="7.2" fill="#F28E2B" stroke="white" stroke-width="1" opacity="0.55"/><circle cx="613.7" cy="420.0" r="10.3" fill="#F28E2B" stroke="white" stroke-width="1" opacity="0.55"/><circle cx="360.0" cy="166.7" r="9.2" fill="#F28E2B" stroke="white" stroke-width="1" opacity="0.55"/><text x="367.0" y="159.7" font-size="9" text-anchor="start" fill="#F28E2B" font-weight="normal">E109</text><circle cx="904.4" cy="398.7" r="7.0" fill="#F28E2B" stroke="white" stroke-width="1" opacity="0.55"/><text x="520.0" y="530.0" font-size="12" text-anchor="middle" fill="#25313c" font-weight="normal">X: Resource burden score (0-1)</text><text x="22.0" y="292.5" font-size="12" text-anchor="middle" fill="#25313c" font-weight="normal" transform="rotate(-90 22 292.5)">Y: Expected margin value (KRW million)</text><circle cx="690.0" cy="558.0" r="7.0" fill="#4E79A7" stroke="white" stroke-width="1" opacity="0.7"/><text x="703.0" y="562.0" font-size="11" text-anchor="start" fill="#25313c" font-weight="normal">Internal</text><circle cx="800.0" cy="558.0" r="7.0" fill="#F28E2B" stroke="white" stroke-width="1" opacity="0.7"/><text x="813.0" y="562.0" font-size="11" text-anchor="start" fill="#25313c" font-weight="normal">External</text><text x="90.0" y="562.0" font-size="10" text-anchor="start" fill="#25313c" font-weight="normal">Bubble size: estimated win probability (external)</text><text x="50.0" y="602.0" font-size="11" text-anchor="start" fill="#697887" font-weight="normal">Figure 7. This is an input-attribute map, not evidence of policy-specific project selection.</text></svg>